<?xml version="1.0" encoding="utf-8"?>
<!-- Generator: Adobe Illustrator 26.2.1, SVG Export Plug-In . SVG Version: 6.00 Build 0)  -->
<svg version="1.1" id="Layer_1" xmlns="http://www.w3.org/2000/svg" xmlns:xlink="http://www.w3.org/1999/xlink" x="0px" y="0px"
	 viewBox="0 0 614.67 158.67" style="enable-background:new 0 0 614.67 158.67;" xml:space="preserve">
<style type="text/css">
	.st0{fill:#582D83;}
</style>
<g>
	<g>
		<path class="st0" d="M214.92,51.41c0,10.92-3.06,20-17.9,20c-10.05,0-15.43-4.68-15.43-15.11V38.78c0-4.62-5.59-2.9-5.59-4.94
			c0-0.7,0.7-0.86,1.13-0.86c0.7,0,4.73,0.22,7.42,0.22c2.74,0,6.56-0.22,7.58-0.22c0.49,0,0.59,0.43,0.59,0.76
			c0,1.82-4.52-1.02-4.52,7.8v11.66c0,8.23,2.15,15.06,11.78,15.06c10.7,0,12.09-8.49,12.09-17.58V40.01c0-6.18-6.61-4.52-6.61-6.45
			c0-0.86,0.91-0.59,1.61-0.59c1.56,0.11,3.01,0.22,4.52,0.22c1.77,0,3.44-0.11,6.13-0.22c0.64,0,0.96,0.11,0.96,0.7
			c0,1.45-3.76-0.48-3.76,5.59V51.41z"/>
		<path class="st0" d="M226.75,43.29c0-10.33-6.02-6.83-6.02-9.41c0-0.48,0.27-0.91,0.91-0.91c1.02,0,1.99,0.22,3.01,0.22
			c1.39,0,2.8-0.22,5.65-0.22c1.72,0,1.07,0.38,2.04,1.39l21.61,23.71c0.7,0.76,1.35,1.4,1.67,1.4c0.32,0,0.43-0.65,0.43-1.99V39.59
			c0-4.89-6.56-3.93-6.56-5.7c0-0.37,0.16-0.91,0.86-0.91c0.86,0,2.42,0.22,6.13,0.22c3.39,0,5.27-0.22,5.75-0.22
			c1.02,0,1.02,0.54,1.02,0.71c0,1.61-4.57,0.32-4.57,5.96V69.8c0,1.19,0,1.61-0.64,1.61c-0.75,0-1.02-0.32-1.4-0.74L230.78,42.7
			c-0.38-0.43-0.7-0.7-0.97-0.7c-0.33,0-0.43,0.37-0.43,0.86v18.28c0,10.32,6.88,6.66,6.88,9.19c0,0.76-1.35,0.7-2.04,0.7
			c-2.64,0-4.46-0.22-6.35-0.22c-1.72,0-3.17,0.22-4.62,0.22c-0.59,0-1.67,0.27-1.67-0.65c0-2.15,5.16-1.19,5.16-6.67V43.29z"/>
		<path class="st0" d="M278.95,64.37c0,6.61,6.02,4.14,6.02,5.86c0,0.59-0.49,0.81-1.72,0.81c-1.99,0-3.98-0.22-8.17-0.22
			c-2.31,0-4.62,0.22-6.02,0.22c-0.48,0-0.59-0.38-0.59-0.65c0-1.88,3.87-0.49,3.87-5.59V38.99c0-4.89-6.08-3.38-6.08-5.27
			c0-0.91,1.34-0.75,1.83-0.75c2.09,0,4.19,0.21,6.08,0.21c1.93,0,3.87-0.21,6.94-0.21c1.61,0,1.88,0.1,1.88,0.75
			c0,1.84-4.03-0.11-4.03,5V64.37z"/>
		<path class="st0" d="M306.59,70.18c-0.59,1.4-0.86,1.72-1.45,1.72c-0.54,0-1.07-0.55-2.04-2.8l-13.4-31.29
			c-0.91-2.09-1.66-2.68-3.87-3.22c-0.16-0.06-0.86-0.37-0.86-0.75c0-1.29,1.66-0.86,2.47-0.86c1.78,0,3.6,0.22,5.44,0.22
			c3.45,0,5-0.22,5.87-0.22c1.72,0,1.99-0.06,1.99,0.86c0,1.45-3.22,0.64-3.22,2.9c0,1.62,0.7,4.14,2.04,7.42l6.99,17.31
			c0.16,0.38,0.43,1.13,0.76,1.13c0.32,0,0.53-0.75,0.7-1.13l7.37-16.35c1.61-3.6,1.72-5.48,1.72-6.34c0-5.05-5.43-3.06-5.43-4.94
			c0-1.02,1.56-0.86,2.2-0.86c1.56,0,3.07,0.22,4.62,0.22c1.51,0,3.01-0.22,4.52-0.22c1.13,0,1.88-0.16,1.88,0.76
			c0,1.24-2.21,0.97-3.65,4.14L306.59,70.18z"/>
		<path class="st0" d="M338.37,46.79c0,2.31,0,2.69,2.31,2.69h3.39c4.62,0,4.78-4.95,5.86-4.95c0.37,0,0.97-0.11,1.02,1.34
			l0.37,9.57c0.06,0.7,0.38,2.63-0.91,2.63c-1.72,0-0.21-5.69-5.8-5.69h-3.98c-2.47,0-2.26,0.64-2.26,3.76v6.88
			c0,3.33-0.21,5.27,3.66,5.27c13.33,0,12.58-7.04,14.62-7.04c0.22,0,0.6,0.15,0.6,1.18c0,4.19-3.17,8.6-7.58,8.6
			c-8.17,0-11.4-0.21-14.09-0.21c-1.67,0-3.93,0.21-6.88,0.21c-0.7,0-1.03-0.27-1.03-0.59c0-2.48,4.09,0.43,4.09-6.13V39.16
			c0-4.84-6.08-3.12-6.08-5.27c0-0.48,0.43-0.91,1.19-0.91c2.21,0,6.08,0.21,14.3,0.21c3.82,0,7.53-0.21,12.26-0.21
			c0.7,0,1.07,0.54,1.07,1.02l0.22,5.33c0.06,0.69,0.31,2.47-0.92,2.47c-2.52,0,1.67-6.3-8.7-6.3c-6.51,0-6.72,0.06-6.72,3.77V46.79
			z"/>
		<path class="st0" d="M364.72,39.74c0-6.02-5.86-4.03-5.86-5.97c0-0.53,0.54-0.81,1.18-0.81c2.47,0,2.9,0.22,6.29,0.22
			c3.6,0,7.25-0.22,10.86-0.22c11.78,0,12.85,7.58,12.85,10.06c0,3.44-1.56,5.43-3.11,6.72c-1.56,1.23-3.12,1.72-3.12,2.25
			c0,0.33,4.58,8.12,8.45,14.89c0.48,0.86,1.5,0.86,1.93,0.86c0.55,0,1.08-0.32,1.61-0.32c0.48,0,0.81,0.32,0.81,0.75
			c0,1.66-3.55,2.85-5.7,2.85c-4.25,0-5.97-3.39-7.63-6.51l-4.52-8.5c-1.24-2.36-2.2-2.85-4.89-2.85c-2.85,0-2.52,0.37-2.52,2.25
			v9.3c0,5.75,5.32,3.55,5.32,5.49c0,0.48-0.43,0.81-1.66,0.81c-0.91,0-2.37-0.22-4.63-0.22c-2.9,0-5.59,0.22-8.27,0.22
			c-0.59,0-1.72,0.16-1.72-0.91c0-1.73,4.36,0.05,4.36-6.73V39.74z M371.33,49.37c0,1.35,1.99,1.35,3.6,1.35
			c8.17,0,8.5-3.01,8.5-6.18c0-5.27-3.01-9.25-8.44-9.25c-1.99,0-3.66,0-3.66,3.23V49.37z"/>
		<path class="st0" d="M398.75,60.02c-0.16-0.76-0.7-2.31,0.64-2.31c0.86,0,0.97,0.49,1.18,1.18c1.73,5.16,5.06,10.05,11.03,10.05
			c4.19,0,7.42-2.58,7.42-6.88c0-4.57-3.39-5.27-12.05-9.09c-4.62-2.04-7.8-4.14-7.8-9.78c0-6.18,4.3-10.7,10.59-10.7
			c4.41,0,6.67,2.1,8.28,2.1c0.7,0,2.04-0.87,2.74-0.87c0.81,0,0.65,0.81,0.76,2.04l0.59,7.2c0.1,1.18-0.06,1.82-1.24,1.82
			c-1.23,0-2.04-10-11.29-10c-3.55,0-5.97,2.05-5.97,5.65c0,3.61,2.96,4.31,10.16,7.48c5.75,2.53,9.3,4.83,9.3,11.66
			c0,7.05-4.95,11.83-11.99,11.83c-3.28,0-6.02-1.29-9.14-1.99c-1.34-0.32-1.29-0.75-1.56-2.04L398.75,60.02z"/>
		<path class="st0" d="M439.55,64.37c0,6.61,6.02,4.14,6.02,5.86c0,0.59-0.49,0.81-1.72,0.81c-1.99,0-3.98-0.22-8.17-0.22
			c-2.31,0-4.62,0.22-6.03,0.22c-0.48,0-0.59-0.38-0.59-0.65c0-1.88,3.87-0.49,3.87-5.59V38.99c0-4.89-6.08-3.38-6.08-5.27
			c0-0.91,1.34-0.75,1.83-0.75c2.1,0,4.19,0.21,6.08,0.21c1.93,0,3.87-0.21,6.93-0.21c1.62,0,1.89,0.1,1.89,0.75
			c0,1.84-4.03-0.11-4.03,5V64.37z"/>
		<path class="st0" d="M462.19,39.05c0-2.58-0.54-2.85-2.74-2.85h-4.51c-6.08,0-4.46,7.05-6.88,7.05c-1.13,0-0.81-1.18-0.7-1.89
			l0.86-7.1c0.06-0.53,0.06-1.29,0.86-1.29c5,0,8.6,0.21,16.45,0.21c7.85,0,11.46-0.21,16.45-0.21c0.81,0,0.81,0.75,0.86,1.29
			l0.59,4.95c0.11,0.64,0.7,2.74-0.69,2.74c-2.16,0-0.44-5.97-6.62-5.75h-4.57c-2.2,0-2.74,0.27-2.74,2.85v24.3
			c0,6.62,6.89,5.05,6.89,6.56c0,1.29-1.07,1.13-2.63,1.13c-2.15,0-3.93-0.22-7.53-0.22c-3.6,0-5.37,0.22-7.53,0.22
			c-0.96,0-1.88,0.06-1.88-1.13c0-2.09,6.08,0.49,6.08-5.91V39.05z"/>
		<path class="st0" d="M490.85,37.86c-2.1-3.87-5.38-2.53-5.38-4.24c0-0.65,0.64-0.65,1.88-0.65c0.96,0,2.26,0.22,4.94,0.22
			c2.26,0,4.57,0,7.85-0.22c0.76-0.05,0.92,0.37,0.92,0.7c0,1.23-2.95,0.8-2.95,2.63c0,0.49,0.11,1.14,0.75,2.48l4.84,10
			c0.86,1.77,1.23,2.47,1.67,2.47c0.32,0,0.7-0.43,1.34-1.6l4.89-8.88c1.02-1.83,0.96-2.58,0.96-2.96c0-3.55-5.21-2.37-5.21-4.03
			c0-0.54,0.38-0.81,1.02-0.81c0.69,0,1.82,0.22,4.62,0.22c4.09,0,4.68-0.22,6.18-0.22c0.7,0,0.97,0.22,0.97,0.59
			c0,1.45-2.42,0.38-5.59,6.29l-7.05,13.33c-0.54,1.08-0.7,1.46-0.7,3.39v8.01c0,6.77,6.62,3.07,6.62,5.81
			c0,0.59-0.81,0.65-1.72,0.65c-0.43,0-1.29-0.21-8.01-0.21c-4.84,0-6.4,0.21-7.91,0.21c-0.86,0-1.45-0.11-1.45-0.59
			c0-2.42,5.86,0.53,5.86-6.29v-6.99c0-1.77-0.21-2.21-0.86-3.39L490.85,37.86z"/>
		<path class="st0" d="M555.4,32.49c10.47-0.11,18.48,6.83,18.48,18.23c0,7.53-3.29,20.7-20.42,20.7
			c-10.79,0-18.05-7.26-18.05-18.18C535.42,41.47,542.57,32.59,555.4,32.49 M555.03,69.1c9.24-0.16,12.24-7.37,12.24-16.29
			c0-11.88-6.55-18.12-13.48-18.01c-9.08,0.16-11.76,7.59-11.76,15.38C542.03,58.03,545.42,69.26,555.03,69.1"/>
		<path class="st0" d="M587.43,46.79c0,2.31,0,2.69,2.31,2.69h3.38c4.63,0,4.79-4.95,5.86-4.95c0.38,0,0.97-0.11,1.02,1.34
			l0.37,9.57c0.06,0.7,0.38,2.63-0.92,2.63c-1.72,0-0.22-5.69-5.8-5.69h-3.98c-2.48,0-2.26,0.64-2.26,3.76v7.96
			c0,5.96,6.07,4.62,6.07,6.07c0,1.08-1.13,0.86-2.47,0.86c-2.04,0-4.03-0.21-6.4-0.21c-1.67,0-3.93,0.21-6.88,0.21
			c-0.7,0-1.03-0.27-1.03-0.59c0-2.48,4.09,0.43,4.09-6.13V39.16c0-4.84-6.07-3.12-6.07-5.27c0-0.48,0.43-0.91,1.18-0.91
			c2.21,0,6.08,0.21,14.3,0.21c3.82,0,7.53-0.21,12.26-0.21c0.7,0,1.07,0.54,1.07,1.02l0.22,5.33c0.05,0.69,0.32,2.47-0.92,2.47
			c-2.53,0,1.66-6.3-8.71-6.3c-6.51,0-6.72,0.06-6.72,3.77V46.79z"/>
		<path class="st0" d="M182.46,91.55c0-8.99-6.91-5.41-6.91-8.61c0-1.04,0.79-0.98,1.11-0.98c0.45,0,0.91,0.27,3.91,0.27
			c5.54,0,11.08-0.27,16.55-0.27c15.97,0,16.03,9.65,16.03,11.21c0,4.11-2.47,7.69-7.1,9.19v0.13c7.95,2.02,10.43,5.54,10.43,11.41
			c0,8.6-5.99,14.21-16.62,14.21c-9.71,0-12.97-0.27-16.23-0.27c-1.56,0-3.25,0.27-4.63,0.27c-1.49,0-2.15-0.14-2.15-1.05
			c0-2.15,5.6-0.39,5.6-6.71V91.55z M190.48,98.52c0,3.19,0.65,3.45,4.43,3.72h3.91c4.96,0,6.84-2.49,6.84-7.31
			c0-5.99-4.82-10.17-10.62-10.17c-4.43,0-4.56,2.48-4.56,6.19V98.52z M190.48,117.49c0,6.19,1.7,8,8.02,8
			c6.39,0,9.71-4.23,9.71-10.55c0-3.91-1.88-9.78-13.75-9.78c-3.85,0-3.97,1.63-3.97,5.03V117.49z"/>
		<path class="st0" d="M226,90.18c0-7.3-7.1-4.89-7.1-7.23c0-0.65,0.65-0.98,1.43-0.98c3,0,3.52,0.26,7.62,0.26
			c4.37,0,8.8-0.26,13.16-0.26c14.28,0,15.58,9.19,15.58,12.19c0,4.16-1.89,6.58-3.78,8.15c-1.89,1.49-3.78,2.07-3.78,2.73
			c0,0.39,5.53,9.84,10.23,18.05c0.58,1.04,1.82,1.04,2.35,1.04c0.65,0,1.31-0.39,1.96-0.39c0.58,0,0.98,0.39,0.98,0.91
			c0,2.02-4.3,3.46-6.91,3.46c-5.15,0-7.23-4.11-9.25-7.88l-5.48-10.3c-1.5-2.86-2.67-3.45-5.93-3.45c-3.46,0-3.07,0.45-3.07,2.73
			v11.27c0,6.97,6.45,4.3,6.45,6.65c0,0.59-0.51,0.98-2.02,0.98c-1.11,0-2.87-0.26-5.6-0.26c-3.52,0-6.78,0.26-10.04,0.26
			c-0.72,0-2.08,0.2-2.08-1.1c0-2.09,5.28,0.06,5.28-8.15V90.18z M234.01,101.84c0,1.63,2.42,1.63,4.37,1.63
			c9.9,0,10.3-3.65,10.3-7.49c0-6.39-3.65-11.2-10.24-11.2c-2.41,0-4.43,0-4.43,3.91V101.84z"/>
		<path class="st0" d="M281.84,120.02c0,8.01,7.3,5.01,7.3,7.1c0,0.73-0.59,0.98-2.09,0.98c-2.41,0-4.82-0.26-9.91-0.26
			c-2.8,0-5.61,0.26-7.3,0.26c-0.59,0-0.72-0.46-0.72-0.79c0-2.28,4.69-0.58,4.69-6.77V89.27c0-5.93-7.36-4.1-7.36-6.39
			c0-1.11,1.63-0.91,2.22-0.91c2.54,0,5.08,0.26,7.37,0.26c2.34,0,4.69-0.26,8.4-0.26c1.95,0,2.28,0.13,2.28,0.91
			c0,2.21-4.89-0.13-4.89,6.06V120.02z"/>
		<path class="st0" d="M297.43,89.92c0-6.65-6.98-4.51-6.98-6.9c0-0.66,0.71-1.05,1.17-1.05c1.24,0,2.55,0.27,9,0.27
			c3.39,0,6.71-0.27,10.1-0.27c8.73,0,27.7,1.05,27.7,21.44c0,18.82-17.01,24.69-23.98,24.69c-7.63,0-11.21-0.26-13.62-0.26
			c-2.02,0-3.98,0.26-6,0.26c-1.11,0-2.61,0.27-2.61-0.91c0-2.47,5.22,0,5.22-5.86V89.92z M305.44,120.87
			c0,4.31,4.82,4.76,7.37,4.76c10.17,0,17.4-6.65,17.4-20.14c0-6.19-3.19-21.05-19.49-21.05c-4.89,0-5.28,1.63-5.28,6.12V120.87z"/>
		<path class="st0" d="M385.08,97.15c0,0.85-0.4,1.17-1.63,1.17c-1.43,0-1.43-14.2-18.58-14.2c-6.05,0-14.66,3.97-14.66,20.46
			c0,8.93,4.56,20.79,15.11,20.79c11.74,0,11.93-5.47,11.93-9.26c0-10.15-7.76-5.72-7.76-8.2c0-1.89,2.09-1.37,3.19-1.37
			c3.07,0,6.06,0.26,9.13,0.26c2.4,0,4.69-0.26,7.03-0.26c0.33,0,0.72,0.26,0.72,0.91c0,2.8-4.5-0.71-4.5,7.63
			c0,2.67,0.19,4.49,0.19,5.41c0,1.04-0.06,1.37-0.65,1.69c-6.19,3.39-13.43,6.39-20.53,6.39c-19.09,0-22.02-16.69-22.02-21.83
			c0-10.95,6.71-25.36,23.13-25.36c9.06,0,14.54,4.24,16.3,4.24c1.43,0,1.56-1.83,2.6-1.83c0.98,0,0.98,1.44,0.98,2.48V97.15z"/>
		<path class="st0" d="M406.13,98.71c0,2.8,0,3.25,2.8,3.25h4.1c5.61,0,5.8-5.99,7.11-5.99c0.46,0,1.17-0.13,1.24,1.63l0.46,11.6
			c0.07,0.85,0.46,3.19-1.11,3.19c-2.08,0-0.26-6.91-7.04-6.91h-4.81c-3,0-2.74,0.78-2.74,4.57v8.34c0,4.03-0.26,6.38,4.43,6.38
			c16.16,0,15.25-8.54,17.72-8.54c0.27,0,0.72,0.19,0.72,1.43c0,5.09-3.84,10.43-9.19,10.43c-9.91,0-13.81-0.26-17.08-0.26
			c-2.02,0-4.76,0.26-8.34,0.26c-0.85,0-1.24-0.32-1.24-0.72c0-3,4.96,0.52,4.96-7.43v-30.5c0-5.87-7.37-3.78-7.37-6.38
			c0-0.59,0.52-1.11,1.43-1.11c2.67,0,7.36,0.26,17.34,0.26c4.62,0,9.12-0.26,14.86-0.26c0.85,0,1.3,0.65,1.3,1.23l0.26,6.45
			c0.06,0.85,0.39,3-1.11,3c-3.07,0,2.01-7.62-10.56-7.62c-7.89,0-8.15,0.06-8.15,4.56V98.71z"/>
		<path class="st0" d="M445.43,119.18c0,8.14,6.58,5.68,6.58,7.95c0,1.11-0.65,0.98-1.56,0.98c-4.57,0-7.43-0.27-8.86-0.27
			c-2.61,0-7.63,0.27-8.02,0.27c-0.19,0-1.37,0.13-1.37-0.98c0-1.89,5.22-0.45,5.22-8.6V89.85c0-6.91-6.78-4.24-6.78-6.65
			c0-0.39,0.27-1.24,1.83-1.24c0.45,0,4.04,0.26,8.99,0.26c0.91,0,5.54-0.2,10.17-0.26c8.34-0.13,16.42,3.13,16.42,12.65
			c0,8.14-6.06,13.09-13.81,13.09c-6.39,0-6.72-1.63-6.72-1.89c0-0.46,0.13-1.24,0.92-1.24c0.52,0,1.63,0.4,3.06,0.4
			c7.89,0,8.47-7.37,8.54-9.06c0.07-1.7-0.52-11.21-10.62-11.21c-2.93,0-3.97,1.3-3.97,4.24V119.18z"/>
		<path class="st0" d="M495.48,81.38c12.71-0.13,22.42,8.27,22.42,22.09c0,9.12-3.97,25.09-24.76,25.09c-13.1,0-21.9-8.8-21.9-22.02
			C471.23,92.26,479.9,81.51,495.48,81.38 M495.02,125.76c11.2-0.19,14.85-8.93,14.85-19.75c0-14.39-7.95-21.96-16.36-21.83
			c-11.01,0.2-14.27,9.19-14.27,18.64C479.25,112.34,483.35,125.95,495.02,125.76"/>
		<path class="st0" d="M525.06,90.18c0-7.3-7.1-4.89-7.1-7.23c0-0.65,0.65-0.98,1.43-0.98c3,0,3.52,0.26,7.63,0.26
			c4.36,0,8.79-0.26,13.16-0.26c14.26,0,15.57,9.19,15.57,12.19c0,4.16-1.89,6.58-3.78,8.15c-1.89,1.49-3.78,2.07-3.78,2.73
			c0,0.39,5.53,9.84,10.22,18.05c0.59,1.04,1.82,1.04,2.34,1.04c0.65,0,1.3-0.39,1.95-0.39c0.58,0,0.98,0.39,0.98,0.91
			c0,2.02-4.3,3.46-6.9,3.46c-5.15,0-7.22-4.11-9.24-7.88l-5.47-10.3c-1.5-2.86-2.67-3.45-5.94-3.45c-3.45,0-3.07,0.45-3.07,2.73
			v11.27c0,6.97,6.46,4.3,6.46,6.65c0,0.59-0.52,0.98-2.02,0.98c-1.1,0-2.87-0.26-5.6-0.26c-3.52,0-6.78,0.26-10.04,0.26
			c-0.71,0-2.08,0.2-2.08-1.1c0-2.09,5.28,0.06,5.28-8.15V90.18z M533.07,101.84c0,1.63,2.42,1.63,4.37,1.63
			c9.91,0,10.29-3.65,10.29-7.49c0-6.39-3.65-11.2-10.23-11.2c-2.41,0-4.44,0-4.44,3.91V101.84z"/>
		<path class="st0" d="M577.49,89.33c0-3.13-0.65-3.45-3.32-3.45h-5.47c-7.36,0-5.4,8.53-8.34,8.53c-1.36,0-0.97-1.43-0.84-2.28
			l1.04-8.6c0.07-0.65,0.07-1.57,1.05-1.57c6.05,0,10.41,0.27,19.92,0.27c9.52,0,13.89-0.27,19.94-0.27c0.98,0,0.98,0.92,1.05,1.57
			l0.71,5.99c0.13,0.79,0.85,3.32-0.85,3.32c-2.61,0-0.52-7.23-8.02-6.97h-5.54c-2.67,0-3.32,0.33-3.32,3.45v29.45
			c0,8.02,8.34,6.13,8.34,7.96c0,1.57-1.3,1.37-3.19,1.37c-2.61,0-4.75-0.27-9.13-0.27c-4.36,0-6.52,0.27-9.12,0.27
			c-1.17,0-2.28,0.06-2.28-1.37c0-2.54,7.36,0.58,7.36-7.17V89.33z"/>
	</g>
</g>
<g>
	<g>
		<g>
			<path class="st0" d="M11.88,82.77c-0.01,0-0.8,0.04-0.8,0.04l-0.35-0.02l-0.16-0.02c-0.12,0-0.2,0.12-0.2,0.24
				c0,0.21,0.16,0.27,0.3,0.34c0.25,0.1,0.59,0.25,0.56,1.26l-0.12,3.97c-0.02,0.6-0.26,0.72-0.46,0.82
				c-0.13,0.06-0.27,0.14-0.27,0.33c0,0.12,0.08,0.24,0.26,0.24l0.2-0.01l0.64-0.03l0.87,0.04c0,0,0.12,0.03,0.25-0.09
				c0.05-0.05,0.05-0.16,0.05-0.16c0-0.22-0.17-0.27-0.3-0.3c-0.26-0.07-0.61-0.16-0.58-1.23l0,0c0,0,0.08-2.63,0.09-2.72
				c0.1,0.25,1.61,4.16,1.61,4.16c0.06,0.16,0.12,0.34,0.3,0.34c0.19,0,0.25-0.16,0.29-0.29l1.62-3.95c0,0,0.07-0.15,0.13-0.28
				c0.01,0.09,0.01,0.16,0.01,0.16l0.13,3c0,0.05,0,0.08,0,0.12c0,0.54-0.2,0.63-0.37,0.7c-0.11,0.05-0.25,0.11-0.25,0.29
				c0,0,0,0.1,0.06,0.16c0.12,0.11,0.36,0.09,0.36,0.09c0.06,0,0.31-0.01,0.31-0.01l0.7-0.03l0.73,0.04c0.29,0,0.5,0,0.5-0.27
				c0-0.2-0.16-0.25-0.29-0.29c-0.23-0.07-0.5-0.16-0.54-0.94l-0.14-4.37c-0.02-0.66,0.25-0.74,0.49-0.81
				c0.14-0.05,0.31-0.09,0.31-0.3c0-0.19-0.16-0.22-0.34-0.22l-0.34,0.03l-0.21,0.01l-0.18-0.01l-0.31-0.03
				c-0.22,0-0.27,0.17-0.3,0.25l-1.97,4.8c0,0-0.03,0.05-0.05,0.1c0-0.03-0.01-0.05-0.01-0.05l-1.86-4.75
				C12.14,82.83,12.04,82.77,11.88,82.77z"/>
		</g>
		<g>
			<path class="st0" d="M17.82,86.63c0,1.18,0.62,3.41,2.96,3.41c1.8,0,2.8-1.49,2.8-1.99c0-0.12-0.13-0.2-0.22-0.2
				c-0.11,0-0.2,0.1-0.37,0.3c-0.32,0.38-0.86,1-1.74,1c-1.6,0-2.2-1.99-2.2-3.25c0-1.26,0.64-2.61,1.83-2.61
				c1.16,0,1.83,1.22,2.06,1.75c0.09,0.21,0.17,0.4,0.34,0.4h0.05c0,0,0.05,0,0.1-0.07c0.08-0.13,0.06-0.36,0.06-0.36l0-0.01
				l-0.15-1.88c0-0.07-0.05-0.15-0.2-0.15c-0.12,0-0.17,0.12-0.21,0.21c-0.02,0.04-0.06,0.12-0.08,0.12l-0.34-0.15
				c-0.35-0.18-0.89-0.46-1.59-0.46C18.65,82.68,17.82,85.04,17.82,86.63z"/>
		</g>
		<g>
			<path class="st0" d="M25.19,82.77c-0.01,0-0.8,0.04-0.8,0.04l-0.35-0.02l-0.16-0.02c-0.12,0-0.2,0.12-0.2,0.24
				c0,0.21,0.16,0.27,0.3,0.34c0.25,0.1,0.59,0.25,0.56,1.26l-0.12,3.97c-0.02,0.6-0.26,0.72-0.46,0.82
				c-0.13,0.06-0.27,0.14-0.27,0.33c0,0.12,0.08,0.24,0.26,0.24l0.21-0.01l0.63-0.03l0.87,0.04c0,0,0.14,0.02,0.25-0.09
				c0.06-0.06,0.05-0.16,0.05-0.16c0-0.22-0.17-0.27-0.31-0.3c-0.26-0.07-0.61-0.16-0.57-1.23l0,0c0,0,0.08-2.63,0.08-2.72
				c0.1,0.25,1.61,4.16,1.61,4.16c0.06,0.16,0.12,0.34,0.3,0.34c0.19,0,0.25-0.16,0.29-0.29l1.62-3.95c0,0,0.07-0.15,0.13-0.28
				c0.01,0.09,0.01,0.16,0.01,0.16l0.13,3c0,0.05,0,0.08,0,0.12c0,0.54-0.2,0.63-0.37,0.7c-0.11,0.05-0.24,0.11-0.24,0.29
				c0,0,0,0.09,0.06,0.16c0.07,0.07,0.36,0.09,0.36,0.09c0.06,0,0.31-0.01,0.31-0.01l0.7-0.03l0.73,0.04c0.29,0,0.5,0,0.5-0.27
				c0-0.2-0.16-0.25-0.29-0.29c-0.23-0.07-0.51-0.16-0.54-0.94l-0.14-4.37c-0.02-0.66,0.25-0.74,0.49-0.81
				c0.14-0.05,0.31-0.09,0.31-0.3c0-0.19-0.16-0.22-0.34-0.22l-0.34,0.03l-0.2,0.01l-0.18-0.01l-0.31-0.03
				c-0.22,0-0.28,0.17-0.3,0.24l-1.97,4.8c0,0-0.03,0.05-0.05,0.1c-0.01-0.03-0.01-0.05-0.01-0.05l-1.87-4.75
				C25.45,82.83,25.35,82.77,25.19,82.77z"/>
		</g>
	</g>
	<g>
		<g>
			<g>
				<path class="st0" d="M139.07,82.8l-0.34,0.01l-0.33-0.01l-0.56-0.03c-0.01,0-0.2,0.06-0.2,0.06l-0.07,0.2
					c0,0.17,0.17,0.22,0.32,0.28c0.21,0.06,0.33,0.1,0.33,0.27c0,0.15-0.05,0.27-0.32,0.68l-0.71,1.03l-0.05,0.07
					c0,0-0.06,0.09-0.08,0.11c0-0.03-0.05-0.11-0.05-0.11l-0.82-1.53l-0.1-0.29c0-0.13,0.09-0.19,0.23-0.25
					c0.12-0.06,0.26-0.15,0.26-0.31v-0.03c0,0-0.01-0.06-0.05-0.11c-0.06-0.08-0.22-0.08-0.22-0.08l-0.28,0.01l-0.81,0.03
					l-0.86-0.03l-0.28-0.01c-0.08,0-0.29,0-0.29,0.25c0,0.19,0.12,0.24,0.24,0.3c0.2,0.09,0.56,0.26,1.1,1.2l0.91,1.61
					c0.04,0.07,0.25,0.48,0.25,0.48l-0.15,0.24c0,0-0.07,0.11-0.07,0.11l-1.42,2.02c-0.19,0.26-0.41,0.38-0.58,0.47
					c-0.15,0.07-0.29,0.15-0.29,0.31v0.05c0,0,0,0.06,0.07,0.1c0.07,0.05,0.26,0.06,0.26,0.06c0.1,0,0.49-0.02,0.49-0.02l0.42-0.02
					l0.31,0.01l0.58,0.03c0.21,0,0.32-0.07,0.32-0.21c0-0.24-0.23-0.28-0.41-0.32c-0.24-0.05-0.36-0.1-0.36-0.29
					c0-0.09,0.07-0.31,0.27-0.64l0.82-1.25c0,0,0.04-0.06,0.07-0.11c0.04,0.06,0.08,0.13,0.08,0.13l0.86,1.4l0.19,0.52
					c0,0.12-0.06,0.16-0.2,0.21c-0.12,0.05-0.27,0.11-0.27,0.32c0,0,0.01,0.12,0.06,0.17c0.05,0.05,0.25,0.07,0.25,0.07
					c0.03,0,0.68-0.03,0.68-0.03l0.34-0.01l0.56,0.03l0.25,0.01c0.3,0,0.54,0,0.54-0.25c0-0.14-0.1-0.2-0.22-0.27
					c-0.16-0.11-0.45-0.28-0.78-0.83l-1.3-2.16l-0.07-0.12l-0.15-0.34l0.19-0.32l0.08-0.11l1.03-1.5c0.38-0.57,0.73-0.71,0.94-0.79
					c0.13-0.05,0.25-0.11,0.25-0.25c0-0.17-0.09-0.26-0.28-0.26L139.07,82.8z"/>
			</g>
			<g>
				<path class="st0" d="M143.98,82.8l-0.34,0.01l-0.32-0.01l-0.57-0.03c-0.01,0-0.15,0.01-0.2,0.06c-0.05,0.06-0.07,0.2-0.07,0.2
					c0,0.17,0.17,0.22,0.32,0.28c0.21,0.06,0.33,0.1,0.33,0.27c0,0.15-0.04,0.27-0.31,0.68l-0.71,1.03l-0.05,0.07
					c0,0-0.06,0.09-0.07,0.11c-0.01-0.03-0.05-0.11-0.05-0.11l-0.82-1.53l-0.1-0.29c0-0.13,0.09-0.19,0.22-0.25
					c0.12-0.06,0.27-0.15,0.27-0.31v-0.06c0,0-0.01-0.06-0.05-0.09c-0.07-0.07-0.23-0.08-0.23-0.08l-0.28,0.01l-0.81,0.03
					l-0.86-0.03l-0.28-0.01c-0.08,0-0.29,0-0.29,0.25c0,0.19,0.11,0.24,0.23,0.3c0.2,0.09,0.56,0.26,1.1,1.2l0.91,1.61
					c0.04,0.07,0.25,0.48,0.25,0.48l-0.15,0.24c0,0-0.07,0.11-0.08,0.11l-1.42,2.02c-0.19,0.26-0.41,0.38-0.57,0.47
					c-0.15,0.07-0.29,0.15-0.29,0.31v0.07c0,0-0.02,0.03,0.05,0.07c0.07,0.04,0.27,0.06,0.27,0.06c0.08,0,0.49-0.02,0.49-0.02
					l0.42-0.02l0.31,0.01l0.59,0.03c0.21,0,0.32-0.07,0.32-0.21c0-0.24-0.22-0.28-0.4-0.32c-0.26-0.05-0.37-0.1-0.37-0.29l0,0
					c0-0.09,0.08-0.31,0.27-0.64l0.82-1.25c0,0,0.04-0.06,0.08-0.11c0.04,0.06,0.08,0.13,0.08,0.13l0.86,1.4l0.19,0.52
					c0,0.12-0.07,0.16-0.2,0.21c-0.11,0.05-0.27,0.11-0.27,0.32c0,0,0,0.11,0.06,0.17c0.06,0.06,0.25,0.07,0.25,0.07
					c0.03,0,0.68-0.03,0.68-0.03l0.35-0.01l0.56,0.03l0.24,0.01c0.31,0,0.55,0,0.55-0.25c0-0.14-0.1-0.2-0.22-0.27
					c-0.17-0.11-0.46-0.28-0.78-0.83l-1.3-2.16c0,0-0.07-0.12-0.07-0.12l-0.16-0.34l0.19-0.32l0.08-0.11l1.02-1.5
					c0.38-0.57,0.74-0.71,0.94-0.79c0.13-0.05,0.26-0.11,0.26-0.25c0-0.17-0.09-0.26-0.29-0.26L143.98,82.8z"/>
			</g>
			<g>
				<path class="st0" d="M148.88,82.85l-0.07,0.17c0,0.2,0.21,0.26,0.38,0.31c0.28,0.09,0.57,0.17,0.57,0.65v4.75
					c0,0.52-0.19,0.62-0.36,0.71c-0.11,0.06-0.25,0.12-0.25,0.32c0,0.13,0.08,0.21,0.19,0.21l0.95-0.04l0.88,0.03l0.41,0.01
					c0.1,0,0.37,0,0.37-0.25c0-0.19-0.19-0.22-0.33-0.25c-0.28-0.05-0.62-0.11-0.62-0.83v-4.72c0-0.52,0.2-0.58,0.37-0.63
					c0.11-0.04,0.27-0.09,0.27-0.28c0-0.05,0-0.16-0.11-0.21l-0.29-0.04l-0.68,0.03l-0.41,0.01l-0.96-0.04
					C149.17,82.78,148.88,82.85,148.88,82.85z"/>
			</g>
			<g>
				<path class="st0" d="M151.08,82.85c-0.05,0.06-0.07,0.17-0.07,0.17c0,0.2,0.21,0.26,0.39,0.31c0.28,0.09,0.57,0.17,0.57,0.65
					v4.75c0,0.52-0.19,0.62-0.36,0.71c-0.11,0.06-0.25,0.12-0.25,0.32c0,0.13,0.07,0.21,0.19,0.21l0.94-0.04l0.88,0.03l0.42,0.01
					c0.1,0,0.37,0,0.37-0.25c0-0.19-0.18-0.22-0.33-0.25c-0.28-0.05-0.62-0.11-0.62-0.83v-4.72c0-0.52,0.2-0.58,0.37-0.63
					c0.12-0.04,0.27-0.09,0.27-0.28c0-0.05-0.01-0.18-0.11-0.21c-0.1-0.03-0.28-0.04-0.28-0.04l-0.68,0.03l-0.41,0.01l-0.96-0.04
					C151.37,82.78,151.13,82.8,151.08,82.85z"/>
			</g>
		</g>
		<path class="st0" d="M148.94,82.8l-0.34,0.02c0,0-0.73-0.04-0.73-0.04c-0.03,0-0.25,0.02-0.34,0.08c-0.09,0.06-0.1,0.18-0.1,0.18
			c0,0.21,0.2,0.25,0.35,0.29c0.25,0.06,0.51,0.12,0.51,0.62c0,0.11,0,0.45-0.26,1.14c0,0-1.17,3.04-1.18,3.07
			c0-0.01-0.01-0.04-0.01-0.04l-1.11-3.2c-0.21-0.59-0.32-1.06-0.32-1.34c0-0.16,0.08-0.2,0.23-0.24c0.12-0.04,0.28-0.11,0.28-0.29
			c0,0,0-0.14-0.06-0.2c-0.09-0.07-0.31-0.06-0.31-0.06c-0.05,0-0.23,0.01-0.23,0.01l-0.74,0.03l-0.85-0.04
			c-0.07,0-0.37,0.03-0.41,0.06c-0.04,0.03-0.08,0.21-0.08,0.21c0,0.14,0.2,0.22,0.2,0.22c0.33,0.1,0.42,0.18,0.56,0.53l2.11,5.76
			c0.17,0.44,0.26,0.58,0.42,0.58c0.17,0,0.24-0.14,0.32-0.38l0,0l2.31-5.94c0.12-0.31,0.28-0.43,0.39-0.51
			c0.09-0.07,0.19-0.14,0.19-0.28c0,0-0.01-0.13-0.06-0.19c-0.06-0.05-0.26-0.06-0.26-0.06C149.31,82.78,148.94,82.8,148.94,82.8z"
			/>
	</g>
	<g>
		<path class="st0" d="M14.28,53.16c-0.18,0.12-0.18,0.3-0.18,0.3l-0.05,1.35l-0.4,2.85c0,0-0.02,0.12,0.1,0.25
			c0.1,0.1,0.21,0.13,0.21,0.13c0.43,0.05,0.55-0.34,0.69-0.74c0.21-0.64,0.48-1.43,1.93-1.28l7.83,0.84
			c3.82,0.41,5.56,2.48,5.16,6.16c-0.38,3.59-2.68,5.52-6.15,5.14l-8.68-0.93c-0.99-0.11-1.07-0.66-1.14-1.16
			c-0.04-0.31-0.09-0.63-0.42-0.67c0,0-0.13-0.01-0.2,0.06c-0.16,0.14-0.21,0.45-0.23,0.73c-0.01,0.05-0.16,2.38-0.16,2.38l-0.3,1.9
			c-0.01,0.1-0.01,0.64,0.27,0.67c0.41,0.04,0.55-0.37,0.69-0.78c0.2-0.54,0.4-1.11,1.14-1.03l8.15,0.88
			c3.17,0.34,7.46-0.01,8.21-6.95c0.24-2.25-0.17-4.05-1.23-5.35c-1.6-1.97-4.18-2.23-5.15-2.32l-7.63-0.82
			c-1.37-0.15-1.58-0.74-1.74-1.17c-0.09-0.25-0.18-0.5-0.48-0.53C14.51,53.08,14.38,53.09,14.28,53.16z"/>
	</g>
	<g>
		<path class="st0" d="M21.86,32.31l-0.38,0.96l-0.55,1.33l-1.01,1.98c-0.09,0.2-0.03,0.39,0.16,0.47c0.31,0.14,0.54-0.15,0.81-0.49
			c0.52-0.66,1.24-1.56,3.1-0.73l9.25,4.17c0,0,0.1,0.06,0.14,0.08c-0.07,0-0.28,0.07-0.28,0.07l-16.57,5.32l-0.16,0.04
			c-0.24,0.05-0.57,0.13-0.68,0.37l-0.38,1.06l-0.57,1.01c0,0-0.09,0.21-0.01,0.41c0.03,0.09,0.13,0.15,0.13,0.15
			c0.31,0.14,0.52-0.12,0.76-0.43c0.53-0.68,1.43-1.83,4.6-0.4l8.17,3.68c2,0.9,1.87,1.81,1.78,2.47c-0.05,0.33-0.09,0.65,0.23,0.79
			c0.08,0.04,0.33,0.15,0.51-0.23L31.08,54l0.7-1.72l0.74-1.48l0.37-0.73l0.02-0.27l-0.25-0.23c-0.29-0.13-0.48,0.16-0.68,0.46
			c-0.36,0.55-0.81,1.23-2.02,0.68l-9.05-4.08c-0.38-0.17-0.4-0.24-0.4-0.25c0.02-0.04,0.1-0.11,0.5-0.21l15.14-4.77
			c0.66-0.22,0.93-0.37,1.07-0.62c0.02-0.04,0.03-0.11,0-0.18c-0.09-0.19-0.33-0.31-0.92-0.58l-12.81-5.77
			c-0.96-0.43-0.95-0.99-0.94-1.44c0-0.29,0.01-0.56-0.26-0.68C22.11,32.05,21.95,32.12,21.86,32.31z"/>
	</g>
	<g>
		<path class="st0" d="M29.09,23.22l-1.46,1.76l-1.89,1.94c-0.17,0.18-0.16,0.31,0.04,0.5c0.2,0.18,0.45,0.01,0.75-0.19
			c0.51-0.34,1.14-0.77,1.94-0.05l9.14,8.26c0.58,0.52,0.75,0.96,0.75,1.33c0,0.34-0.15,0.62-0.27,0.86
			c-0.09,0.18-0.18,0.35-0.18,0.51c0,0.1,0.03,0.19,0.13,0.27c0.25,0.23,0.45,0.19,0.75-0.14l0.27-0.33l1.24-1.48l1.2-1.24
			l0.67-0.68c0.25-0.28,0.36-0.48,0.14-0.67c-0.28-0.24-0.62-0.01-1,0.24c-0.54,0.36-1.15,0.78-1.82,0.16l-9.6-8.67
			c-0.81-0.73-0.5-1.33-0.25-1.8c0.15-0.29,0.28-0.55,0.07-0.75C29.49,22.81,29.32,22.96,29.09,23.22z"/>
	</g>
	<g>
		<path class="st0" d="M49.39,13.33l-0.37,0.18l-1.34,0.62l-1.54,0.52c-0.18,0.07-0.42,0.22-0.28,0.56
			c0.12,0.29,0.45,0.23,0.78,0.17c0.45-0.08,0.92-0.17,1.13,0.36c0.2,0.31,0.3,0.86,0.3,1.63l-0.31,10.76l0.01,0.21
			c0.01,0.22,0.02,0.45-0.1,0.49c-0.14,0.06-0.48-0.28-1.03-0.85l-0.46-0.47l-8.03-7.09c-0.18-0.17-0.42-0.48-0.54-0.76
			c-0.04-0.11-0.06-0.21-0.06-0.3c0-0.29,0.17-0.5,0.33-0.7c0.12-0.14,0.22-0.28,0.22-0.41c0-0.04-0.01-0.08-0.03-0.11
			c0,0-0.02-0.08-0.16-0.15c-0.17-0.08-0.38,0-0.38,0l-0.63,0.29l-1.14,0.53l-2.13,0.76c-0.25,0.1-0.35,0.32-0.24,0.57
			c0.11,0.26,0.38,0.23,0.67,0.2c0.44-0.05,1.03-0.11,1.68,0.54l11.24,10.31l0.26,0.27c0.42,0.45,0.91,0.96,1.26,0.82
			c0.32-0.13,0.3-0.64,0.29-1.18l0-0.52l0.56-15.05c0.01-1.05,0.32-1.33,0.52-1.51c0.13-0.12,0.26-0.24,0.16-0.49
			c0,0-0.04-0.16-0.2-0.23C49.65,13.23,49.39,13.33,49.39,13.33z M38.07,18.13L38.07,18.13L38.07,18.13z"/>
	</g>
	<g>
		<path class="st0" d="M63.19,12.64l-1.41,0.08l-1.28,0.01l-6.1,0.07c-0.51,0.01-0.77,0.07-0.87,0.19c-0.1,0.11-0.08,0.23-0.08,0.23
			c0.01,0.33,0.45,0.4,0.71,0.44l0.12,0.02c1.25,0.15,1.28,1.26,1.31,2.33l0.28,10.63c0.03,1.18-0.02,1.77-0.58,2.04
			c0,0-0.62,0.29-0.62,0.29c-0.31,0.13-0.46,0.19-0.49,0.44c0,0.02,0.01,0.17,0.09,0.25c0.09,0.08,0.38,0.1,0.38,0.1l1.81-0.1
			l1.19-0.08l3.48-0.04l2.58-0.01l0.16,0c1-0.02,1.54-0.03,2.3-0.92c0.82-0.93,1.21-1.73,1.19-2.46c0,0-0.02-0.2-0.12-0.31
			c-0.12-0.13-0.13-0.09-0.18-0.07c-0.1,0.04-0.36,0.23-0.36,0.23c-0.61,0.52-2.22,1.91-6.76,2.03c-0.86,0.02-1.32-0.06-1.56-0.29
			c-0.24-0.24-0.25-0.64-0.25-1.24l-0.01-0.35l-0.11-4.06l0-0.12c-0.01-0.2-0.02-0.38,0.07-0.48c0,0,0.08-0.08,0.26-0.08
			c0.18,0,4.06-0.09,4.06-0.09c1.2-0.03,1.37,0.73,1.51,1.34c0.09,0.39,0.17,0.76,0.54,0.75c0.23-0.01,0.36-0.16,0.36-0.42
			l-0.1-1.92l-0.01-2.46l-0.17-0.47l-0.22-0.09c-0.26,0.01-0.33,0.27-0.41,0.57c-0.15,0.56-0.37,1.4-2.02,1.44l-3.08,0.07
			c-0.45,0.01-0.69,0.02-0.78-0.06c-0.07-0.06-0.07-0.24-0.08-0.53l-0.11-4.27c-0.02-0.63-0.03-0.98,0.13-1.15
			c0.19-0.2,0.68-0.21,1.66-0.24l0.38-0.01l0.39-0.01c1.14-0.04,3.5-0.13,4.06,0.55c0.16,0.22,0.19,0.57,0.21,0.88
			c0.04,0.43,0.08,0.88,0.5,0.87l0.19-0.09c0.26-0.27,0.36-1.23,0.32-2.92c-0.01-0.28-0.06-0.45-0.15-0.55l-0.2-0.08L63.19,12.64z"
			/>
	</g>
	<g>
		<path class="st0" d="M85.89,28.64c-0.56-0.09-1.6-0.26-2.78-1.96c0,0-4-5.7-4.12-5.87c1.8-0.78,3-2.41,3-4.14
			c0-0.02,0-0.03,0-0.05c-0.02-1.2-0.4-2.17-1.15-2.87c-0.7-0.66-2.08-1.41-4.72-1.27l-2.04,0.08l-2.16,0.08l-1.2-0.05l-0.38-0.03
			c-0.33,0-0.59,0.18-0.59,0.39c0.01,0.38,0.36,0.44,0.75,0.51c0.61,0.1,1.37,0.23,1.39,1.58l0.16,12.09
			c0.02,1.08-0.64,1.35-1.17,1.57c-0.32,0.13-0.6,0.24-0.6,0.53c0,0.2,0.15,0.36,0.35,0.35l2.8-0.13L76,29.5l0.25,0.01
			c0.08,0,0.37-0.02,0.44-0.08c0.07-0.06,0.07-0.22,0.07-0.22c0-0.39-0.42-0.48-0.86-0.57c-0.7-0.16-1.5-0.33-1.52-1.51l-0.06-5.01
			l0-0.11c0,0,0.01-0.26,0.05-0.34c0.04-0.08,0.24-0.13,0.48-0.13l0.42-0.01c1.84-0.02,1.84-0.02,2.25,0.64l0.34,0.54l2.78,4.12
			c1.23,1.74,2.57,2.58,4.1,2.56c1.64-0.02,1.69-0.28,1.69-0.39c0,0,0-0.01,0-0.01C86.42,28.73,86.19,28.69,85.89,28.64z
			 M76.68,20.36l-0.62,0.02c-0.75,0.02-1.59,0.05-1.8-0.14l-0.11-5.62l0,0l0,0l0,0c0-0.33,0.04-0.53,0.15-0.64
			c0.15-0.15,0.44-0.16,0.89-0.16l0.12,0c1.71-0.02,2.89,0.31,3.61,1c0.56,0.55,0.86,1.35,0.87,2.38c0.01,1.02-0.25,1.8-0.76,2.33
			C78.5,20.06,77.71,20.34,76.68,20.36z"/>
		<polygon class="st0" points="74.15,14.61 74.15,14.61 74.15,14.61 		"/>
	</g>
	<g>
		<path class="st0" d="M89.89,13.37c-1.04,0.82-1.69,2.04-1.69,3.48c0,3.42,2.93,4.1,5.35,4.97c2.08,0.75,3.93,1.75,3.93,3.4
			c0,2.31-2.01,3.34-4.05,3.34c-3.16,0-4.61-2.32-4.86-3.3l-0.05-0.21c-0.08-0.38-0.13-0.65-0.48-0.65c-0.11,0-0.21,0.04-0.27,0.12
			c-0.08,0.1-0.11,0.24-0.11,0.42c0,0.1,0.01,0.2,0.03,0.32l0.58,3.08c0.11,0.53,2.46,1.39,4.08,1.39c4.93,0,6.74-2.83,6.74-5.19
			c0-3.84-2.75-4.35-5.29-5.3c-2.07-0.76-3.99-1.76-3.99-3.14c0-2.11,2.06-2.74,3.48-2.74c2.09,0,3.83,1.28,4.36,2.84
			c0.08,0.25,0.25,0.78,0.57,0.78c0,0,0.18-0.01,0.27-0.1c0.09-0.1,0.08-0.36,0.08-0.36l-0.34-3.24c-0.03-0.35-0.27-0.48-0.38-0.42
			c-0.1,0.05-0.32,0.16-0.32,0.16l-0.16,0.1l-0.31-0.13c-0.48-0.24-1.45-0.73-3.56-0.73C92.09,12.25,90.81,12.65,89.89,13.37z
			 M87.69,25.25L87.69,25.25L87.69,25.25z"/>
	</g>
	<g>
		<path class="st0" d="M103.23,12.87c-0.09,0.07-0.12,0.27-0.12,0.27c0,0.01,0,0.02,0,0.02c0,0.24,0.28,0.33,0.62,0.43
			c0.57,0.17,1.27,0.39,1.27,1.33c0,0.03,0,0.07,0,0.09c0,0-0.72,12.03-0.72,12.03c-0.09,1.43-0.85,1.58-1.41,1.69
			c-0.32,0.06-0.62,0.12-0.64,0.43c0,0.02,0,0.04,0,0.05c0,0.29,0.16,0.41,0.58,0.43l0.43,0l1.93,0.05l1.72,0.16l0.95,0.09
			c0,0,0.34,0.04,0.52-0.08c0.06-0.04,0.09-0.22,0.09-0.22c0.02-0.36-0.38-0.48-0.81-0.6c-0.62-0.19-1.32-0.4-1.28-1.29l0.76-12.62
			c0.06-1.05,0.72-1.18,1.25-1.28c0.31-0.06,0.61-0.12,0.63-0.4c0.02-0.31-0.21-0.35-0.54-0.37l-2.29-0.04l-2.69-0.26
			C103.48,12.81,103.32,12.8,103.23,12.87z"/>
	</g>
	<g>
		<path class="st0" d="M112.41,14.02l-0.04,0.11l-0.88,2.12c0,0.01-0.05,0.19,0.04,0.32c0.06,0.09,0.18,0.15,0.18,0.15
			c0.33,0.09,0.48-0.17,0.6-0.36l0.06-0.09l0.09-0.14c0.69-1,0.85-1.24,2.18-0.88l3.83,1.03c0.08,0.03,0.13,0.2-0.1,0.89l-0.03,0.1
			v0l-3.36,11.78c-0.22,0.77-0.93,0.81-1.5,0.85c-0.4,0.02-0.75,0.05-0.83,0.32c0,0-0.05,0.21,0.01,0.33
			c0.06,0.12,0.26,0.17,0.26,0.17l0.14,0.02l3.11,0.75l1.88,0.6c0,0,0.08,0.06,0.25-0.02c0.1-0.05,0.16-0.25,0.16-0.25
			c0.11-0.36-0.21-0.52-0.54-0.69c-0.52-0.26-1.15-0.59-0.83-1.69l3.29-11.55l0.09-0.33c0.09-0.35,0.15-0.56,0.24-0.61
			c0.08-0.05,0.28,0.01,0.6,0.1l3.57,0.96c1.41,0.38,1.3,1,1.21,1.5c-0.06,0.31-0.07,0.68,0.29,0.76c0.17,0.04,0.3-0.02,0.3-0.02
			c0.16-0.1,0.19-0.32,0.22-0.48l0.39-1.84c0.15-0.59,0.02-0.8-0.56-0.96l-0.69-0.17l-6.23-1.6L115.65,14l-2.49-0.71
			C112.7,13.17,112.51,13.72,112.41,14.02z"/>
	</g>
	<g>
		<path class="st0" d="M129.85,19.17c-0.15,0.18-0.01,0.39,0.17,0.64c0.23,0.33,0.55,0.77,0.45,1.43l-0.7,7.59
			c0,0-0.01,0.11-0.01,0.11c-0.03,0.33-0.09,0.82-0.33,1.11l-3.75,4.35c-0.63,0.73-1.2,0.44-1.7,0.19
			c-0.33-0.16-0.63-0.32-0.85-0.06c0,0-0.08,0.14-0.08,0.27c0,0.16,0.18,0.32,0.18,0.32l0.31,0.23l1.41,1.09l1.37,1.23l0.59,0.54
			c0.21,0.18,0.5,0.42,0.71,0.17c0.23-0.27,0.04-0.55-0.17-0.86c-0.33-0.49-0.73-1.1,0.06-2.02l3.79-4.4
			c0.14-0.17,0.28-0.2,0.59-0.28l0.5-0.13l5.95-1.76l0.38-0.12c0.56-0.18,1.09-0.36,1.68-0.25l0.14,0.03
			c0.21,0.07,0.51,0.16,0.68-0.04c0,0,0.09-0.16,0.09-0.29c0-0.13-0.12-0.24-0.12-0.24l-1.66-1.27l-1.28-1.2
			c-0.13-0.11-0.46-0.39-0.76-0.04c-0.21,0.24,0.03,0.52,0.28,0.82c0.4,0.48,0.66,0.85,0.3,1.27c-0.35,0.4-0.77,0.52-1.07,0.6
			l-0.12,0.03l-4.48,1.42c-0.42,0.13-0.54,0.11-0.57,0.09c-0.07-0.06-0.09-0.23-0.05-0.55l0.41-5.54c0.03-0.33,0.07-0.72,0.28-0.96
			c0.21-0.25,0.56-0.16,0.89-0.08c0.28,0.07,0.55,0.14,0.7-0.04c0,0,0.09-0.05,0.07-0.2c-0.02-0.23-0.28-0.41-0.28-0.41l-0.33-0.24
			l-1.01-0.77l-1.49-1.33l-0.55-0.5C130.28,18.94,129.99,19.01,129.85,19.17z"/>
	</g>
	<g>
		<path class="st0" d="M150.97,47.16c-0.21-2.6-1.35-4.89-3.19-6.46c-1.73-1.46-3.96-2.16-6.3-1.97c-5.32,0.44-8.61,4.25-8.19,9.48
			c0.22,2.85,1.33,5.18,3.17,6.75c1.75,1.48,4.03,2.15,6.6,1.94C147.98,56.48,151.38,52.3,150.97,47.16z M141.88,54.81
			c-2.11,0.17-4.02-0.37-5.39-1.52c-1.19-1.01-1.92-2.46-2.05-4.07c-0.4-4.88,3.72-7.86,7.79-8.2c2.03-0.16,3.95,0.39,5.3,1.53
			c1.19,1.01,1.89,2.43,2.03,4.09C149.93,51.33,145.95,54.47,141.88,54.81z"/>
	</g>
	<g>
		<path class="st0" d="M150.62,58.95c-0.18,1.25-1.21,1.25-2.3,1.25h-10.93c-1.69,0-1.94-0.73-2.13-1.26
			c-0.1-0.27-0.19-0.53-0.48-0.53c-0.1,0-0.31,0.09-0.31,0.34l0.03,0.67l0.08,1.88l-0.11,2.67l-0.01,0.17c0,0.16,0,0.64,0.43,0.64
			c0.26,0,0.32-0.3,0.4-0.64c0.15-0.68,0.35-1.6,1.78-1.6h4.79l0.17,0c0.17-0.01,0.36-0.01,0.41,0.05c0.05,0.07,0.08,0.23,0.08,0.29
			c0,0.06,0,3.44,0,3.44c0,1.2-0.74,1.35-1.34,1.47c-0.38,0.08-0.75,0.15-0.75,0.52c0,0.23,0.15,0.37,0.41,0.37l1.87-0.05l2.4,0.05
			c0.26,0,0.55-0.12,0.55-0.37c0-0.26-0.23-0.34-0.49-0.42c-0.49-0.16-1.21-0.4-1.21-2.06v-2.46c0-0.44,0-0.69,0.08-0.77
			c0.07-0.06,0.24-0.06,0.52-0.06h4.33l0.42,0c0.44,0,0.7-0.01,0.82,0.1c0.16,0.16,0.16,0.62,0.16,1.54v0.38l0,0.4
			c0.01,1.1,0.04,3.16-0.63,3.7c-0.22,0.16-0.56,0.17-0.86,0.19c-0.42,0.02-0.86,0.05-0.86,0.48c0,0.25,0.37,0.49,3.02,0.49
			c0.15,0,0.62,0,0.62-0.35l-0.05-2.09l-0.04-1.42l0.03-0.93l0.07-6.03c0-0.71-0.19-0.86-0.48-0.86
			C150.91,58.13,150.71,58.54,150.62,58.95z"/>
	</g>
	<g>
		<path class="st0" d="M31,105.91l-0.35-2.65l-0.18-1.29l-0.08-1.32l-0.04-0.67c-0.03-0.27-0.06-0.53-0.22-0.64
			c-0.16-0.1-0.31-0.08-0.31-0.08c-0.23,0.03-0.29,0.33-0.37,0.71c-0.13,0.67-0.32,1.6-1.47,1.73l-11.92,1.37
			c-1.72,0.19-1.98-0.5-2.09-0.79c-0.02-0.04-0.06-0.16-0.06-0.16c-0.17-0.39-0.3-0.67-0.6-0.64c0,0-0.09,0.01-0.17,0.1
			c-0.16,0.16-0.11,0.66-0.11,0.67l0.47,3.42l0.26,3.23c0.21,1.94,0.94,3.4,2.16,4.38c1.26,1,2.81,1.24,3.75,1.13
			c3.17-0.37,3.69-2.86,3.92-3.92c0,0,0.12-0.42,0.13-0.46c0.01,0.05,0.12,0.18,0.12,0.18c0.46,0.59,1.55,1.96,3.56,1.73
			C28.39,111.83,31.57,111.05,31,105.91z M18.57,112.11c-0.41,0.05-1.48,0.09-2.41-0.64c-0.76-0.61-1.22-1.58-1.37-2.89
			c-0.35-3.17,0.05-3.21,1.55-3.37c0,0,5.31-0.62,5.41-0.64c0.1-0.02,0.17,0.03,0.17,0.03c0.17,0.13,0.31,0.65,0.4,1.54
			C22.93,111.61,19.98,111.95,18.57,112.11z M28.94,108.47c-0.61,0.77-1.48,1.23-2.52,1.34c-0.92,0.09-2.47,0.27-2.93-3.69
			c-0.12-1.02-0.16-1.57-0.03-1.71c0.06-0.08,0.17-0.09,0.37-0.09l0.25-0.02l3.92-0.42l0.28-0.03c0.61-0.07,0.98-0.11,1.19,0.06
			c0.18,0.15,0.28,0.47,0.36,1.06C29.98,106.29,29.66,107.57,28.94,108.47z"/>
	</g>
	<g>
		<path class="st0" d="M62.83,140.44c0,5.24,3.61,8.63,9.2,8.63c2.93,0,4.22-0.73,5.48-1.44c0.62-0.35,1.27-0.72,2.11-0.98
			l0.07-0.02l0-4.42c0-0.97,0.46-1.22,0.83-1.43c0.21-0.12,0.42-0.23,0.42-0.46l-0.09-0.22c-0.13-0.12-0.38-0.11-0.55-0.1L80.19,140
			h-4.1c-0.08-0.01-0.49,0.01-0.57,0.11c-0.08,0.1-0.1,0.25-0.1,0.25c0,0.34,0.38,0.4,0.79,0.47c0.62,0.1,1.06,0.22,1.06,0.75v3.51
			c0,1.87-2.42,2.7-4.83,2.7c-4.86,0-7.04-3.95-7.04-7.87c0-3.33,1.69-7.23,6.45-7.23c4.3,0,6.06,2.47,6.9,3.65
			c0.32,0.45,0.51,0.72,0.72,0.72c0.37,0,0.37-0.4,0.37-0.53l-0.25-3.14c0-0.01,0-0.13,0-0.13s-0.03-0.34-0.11-0.42
			c-0.07-0.07-0.26-0.09-0.26-0.09c-0.18,0-0.3,0.13-0.39,0.25c-0.09,0.09-0.15,0.17-0.24,0.17c-0.17,0-0.41-0.13-0.74-0.31
			c-0.89-0.49-2.37-1.31-5.43-1.31C66.95,131.56,62.83,135.38,62.83,140.44z"/>
	</g>
	<g>
		<path class="st0" d="M104.67,131.53l-2.96,0.43l-2.31,0.19l-0.39,0.03c-0.23,0.03-0.39,0.23-0.36,0.5
			c0.04,0.39,0.39,0.38,0.72,0.36c0.6-0.03,1.34-0.09,1.54,1.66l1.3,11.35c0.19,1.69-0.56,2-1.11,2.24
			c-0.28,0.12-0.54,0.23-0.51,0.51c0,0,0.08,0.17,0.12,0.23c0.05,0.06,0.26,0.12,0.41,0.1c0.15-0.02,1.1-0.16,1.1-0.16l1.75-0.26
			l1.7-0.14l0.95-0.06c0.4-0.05,0.64-0.13,0.7-0.24c0.06-0.11,0.06-0.24,0.06-0.24c-0.04-0.34-0.4-0.36-0.78-0.38
			c-0.75-0.03-1.87-0.09-2.13-2.31l-1.37-11.97c-0.04-0.39,0.17-0.45,0.78-0.58l0.33-0.07c1-0.23,2.28,0.08,3.35,0.82
			c1.02,0.7,1.68,1.69,1.82,2.7c0.19,1.45-0.84,3.09-3.18,3.42l-1.21,0.11c0,0-0.16,0.01-0.23,0.02c-0.07,0-0.27,0.07-0.34,0.19
			c-0.05,0.08-0.09,0.16-0.08,0.24c0.05,0.56,1.85,0.58,2,0.55c5.44-0.62,5.28-4.51,5.2-5.28
			C111.19,132.52,108.69,131.07,104.67,131.53z"/>
	</g>
	<g>
		<path class="st0" d="M34.9,118.55l-0.98-1.78l-1.05-1.92l-0.49-1.08l-0.14-0.35c-0.15-0.29-0.42-0.45-0.62-0.34
			c-0.34,0.17-0.23,0.52-0.12,0.89c0.19,0.59,0.41,1.32-0.79,1.95l-10.74,5.57c-0.96,0.5-1.49,0.03-1.92-0.34
			c-0.26-0.23-0.49-0.43-0.74-0.29c0,0-0.13,0.1-0.18,0.21c-0.05,0.11,0.02,0.26,0.02,0.26l1.37,2.44l1.12,2.33l0.1,0.23
			c0.04,0.08,0.15,0.33,0.27,0.35c0.12,0.02,0.23-0.03,0.23-0.03c0.35-0.18,0.24-0.59,0.13-1.03c-0.18-0.69-0.38-1.49,0.66-2.03
			l4.45-2.32l0.09-0.04l0.32-0.11c0.11,0.04,0.22,0.16,0.34,0.38l0.19,0.36c0.85,1.63,0.85,1.63,0.44,2.31l-0.33,0.54l-2.44,4.33
			c-1.01,1.89-1.15,3.46-0.45,4.81c0.42,0.82,0.75,1.27,0.97,1.34l0.04,0.01c0,0,0.06,0.01,0.11-0.02c0.12-0.06,0.16-0.15,0.16-0.26
			c0-0.11-0.04-0.24-0.08-0.38c-0.08-0.25-0.18-0.59-0.18-1.06c0-0.57,0.15-1.32,0.69-2.3c0,0,3.3-6.15,3.4-6.32
			c1.51,1.27,3.53,1.6,5.08,0.8c1.07-0.55,1.76-1.33,2.05-2.3C36.16,122.42,36.21,120.84,34.9,118.55z M34.08,122.09
			c-0.24,0.75-0.82,1.37-1.74,1.85c-2.29,1.18-3.56-0.09-4.22-1.36l-0.29-0.54c-0.33-0.61-0.69-1.29-0.69-1.6
			c0-0.03,0-0.06,0.01-0.08l4.98-2.62c0.29-0.15,0.49-0.21,0.63-0.15c0.2,0.06,0.34,0.33,0.54,0.72l0.05,0.11
			C34.15,119.94,34.38,121.14,34.08,122.09z"/>
	</g>
	<g>
		<path class="st0" d="M39.1,124.84c-0.04,0.06-0.06,0.11-0.06,0.17c0,0.17,0.16,0.35,0.33,0.55c0.26,0.3,0.57,0.67,0.57,1.12
			c0,0.24-0.08,0.48-0.28,0.77c0,0-7.15,9.77-7.15,9.77c-0.85,1.17-1.57,0.88-2.1,0.66c-0.3-0.12-0.59-0.24-0.78,0.02
			c-0.2,0.27-0.14,0.47,0.23,0.73l0.36,0.22l1.61,1.09l1.35,1.07l0.76,0.6c0,0,0.28,0.24,0.49,0.22c0.05-0.01,0.1-0.02,0.19-0.13
			c0.21-0.3-0.06-0.62-0.35-0.96c-0.42-0.49-0.9-1.06-0.38-1.77l7.5-10.25c0.63-0.86,1.25-0.61,1.76-0.41
			c0.29,0.13,0.58,0.23,0.74,0.01c0.19-0.26,0.02-0.4-0.26-0.61l-1.91-1.28l-2.13-1.68C39.38,124.61,39.26,124.64,39.1,124.84z"/>
	</g>
	<g>
		<path class="st0" d="M134.94,100.28l-0.05,0.63l-0.55,6.48l-0.47,4.32l-0.29,2.56c-0.05,0.47,0.53,0.57,0.84,0.62l0.11,0.01
			l2.25,0.52c0.01,0,0.19,0.03,0.31-0.09c0.07-0.08,0.11-0.21,0.11-0.21c0.03-0.34-0.25-0.44-0.46-0.53l-0.11-0.04
			c0.01,0-0.15-0.07-0.15-0.07c-1.1-0.51-1.37-0.63-1.23-1.99l0.38-3.95c0.02-0.08,0.19-0.17,0.89-0.06l0.11,0.02l12.23,1.34
			c0.79,0.08,0.96,0.78,1.1,1.34c0.09,0.39,0.17,0.73,0.45,0.76c0,0,0.22,0.04,0.33-0.06c0.11-0.1,0.12-0.28,0.12-0.28l0-0.14
			l0.22-3.2l0.28-1.95c0,0,0.01-0.15-0.06-0.24c-0.07-0.1-0.27-0.11-0.27-0.11c-0.37-0.04-0.47,0.3-0.59,0.65
			c-0.17,0.55-0.39,1.23-1.55,1.1l-11.99-1.31l-0.34-0.03c-0.37-0.04-0.59-0.06-0.65-0.14c-0.06-0.07-0.04-0.27-0.01-0.6l0.36-3.68
			c0.14-1.46,0.77-1.45,1.28-1.45c0.31,0,0.67,0.01,0.7-0.41c0,0,0-0.21-0.08-0.3c-0.11-0.13-0.34-0.14-0.51-0.14l-1.89-0.09
			C135.18,99.53,135,99.68,134.94,100.28z M136.63,108.51L136.63,108.51L136.63,108.51z"/>
	</g>
	<g>
		<path class="st0" d="M130.28,130.26c-2.86-4.03-8.2-4.81-12.4-1.83c-2.13,1.5-3.53,3.65-3.93,6.05c-0.38,2.23,0.16,4.51,1.52,6.42
			c3.1,4.34,8.05,5.24,12.33,2.2c2.33-1.64,3.78-3.78,4.18-6.17C132.37,134.66,131.78,132.35,130.28,130.26z M130.53,137.74
			c-0.26,1.54-1.13,2.91-2.45,3.84c-3.99,2.82-8.66,0.81-11.02-2.52c-0.96-1.35-1.47-2.88-1.47-4.35c0-0.34,0.03-0.67,0.08-1
			c0.26-1.53,1.12-2.85,2.48-3.82c3.84-2.72,8.57-0.89,10.94,2.43C130.32,134.06,130.83,135.98,130.53,137.74z"/>
	</g>
	<g>
		<path class="st0" d="M94.98,131.82l-2.11,0.12l-1.4,0.07l-1.28,0.01l-6.1,0.07c-0.51,0.01-0.76,0.06-0.88,0.19l-0.08,0.23
			c0.01,0.32,0.45,0.4,0.71,0.44l0.11,0.02c1.25,0.16,1.28,1.26,1.31,2.33l0.28,10.63c0.03,1.18-0.01,1.77-0.58,2.04
			c-0.01,0-0.63,0.29-0.63,0.29c-0.3,0.13-0.45,0.19-0.49,0.44c0.01,0.36,0.36,0.35,0.47,0.35l1.81-0.1l1.19-0.07l3.49-0.04
			l2.57-0.01l0.16,0c1-0.02,1.54-0.03,2.3-0.92c0.82-0.92,1.21-1.73,1.19-2.45c0,0-0.05-0.25-0.11-0.31
			c-0.06-0.06-0.13-0.12-0.22-0.08c-0.08,0.03-0.32,0.24-0.32,0.24c-0.61,0.52-2.22,1.92-6.77,2.03c-0.86,0.02-1.32-0.07-1.56-0.3
			c-0.24-0.23-0.24-0.63-0.25-1.24l0-0.34l-0.12-4.06l0-0.13c-0.01-0.2-0.02-0.38,0.07-0.49c0,0,0.16-0.07,0.26-0.08
			c0.1,0,4.07-0.09,4.07-0.09c1.2-0.03,1.37,0.73,1.51,1.34c0.09,0.39,0.17,0.76,0.54,0.75c0.23-0.01,0.36-0.16,0.35-0.42
			l-0.09-1.92l-0.01-2.46c0,0,0-0.33-0.17-0.46c-0.06-0.06-0.21-0.08-0.21-0.08c-0.26,0.01-0.33,0.26-0.41,0.56
			c-0.15,0.56-0.37,1.41-2.02,1.44l-3.08,0.07c-0.45,0.01-0.69,0.01-0.77-0.06c-0.07-0.06-0.07-0.24-0.08-0.53l-0.11-4.27
			c-0.02-0.63-0.03-0.98,0.13-1.15c0.19-0.19,0.69-0.21,1.67-0.23l0.37-0.01l0.38-0.01c1.14-0.04,3.5-0.13,4.06,0.56
			c0.16,0.21,0.18,0.56,0.21,0.87c0.04,0.43,0.08,0.88,0.5,0.87l0.2-0.09c0.26-0.28,0.36-1.23,0.32-2.92
			C95.33,132.29,95.32,131.82,94.98,131.82z"/>
	</g>
	<g>
		<path class="st0" d="M59.95,134.96c-1.25-2.15-3.5-3.83-6.02-4.48l-3.03-0.76l-2.23-0.55l-2.21-0.57c-0.22-0.06-0.47,0-0.53,0.22
			c-0.08,0.29,0.2,0.43,0.5,0.59c0.55,0.29,1.32,0.69,0.9,2.17l-3.23,11.53c-0.39,1.4-1.17,1.43-1.73,1.44
			c-0.28,0.01-0.55,0.02-0.62,0.26c0,0-0.02,0.17,0.01,0.24c0.06,0.13,0.24,0.18,0.24,0.18l2.79,0.63l2.03,0.57l1.72,0.5
			c6.44,1.73,10.54-0.46,12.2-6.52C61.23,138.59,60.96,136.71,59.95,134.96z M57.89,141.21c-1.69,5.69-5.86,5.38-8.18,4.69
			c-1.32-0.4-2.93-1.12-3.46-1.98c-0.11-0.19,0.15-1.04,0.27-1.41l0.07-0.25l2.93-10.31c0.28-1.01,0.32-1.16,2.66-0.56
			c2.36,0.62,4.21,1.96,5.22,3.76C58.38,136.88,58.55,138.98,57.89,141.21z"/>
	</g>
	<g>
		<path class="st0" d="M149.14,120.72l-0.08-0.09c-0.23-0.14-0.39,0.03-0.6,0.25c-0.39,0.42-1.12,1.19-3.2,1.23
			c0,0-7.03,0.16-7.24,0.16c0.06-0.33,0.1-0.67,0.1-0.98c0-1.57-0.7-2.98-1.94-3.78c-1.04-0.67-2.07-0.89-3.08-0.66
			c-0.94,0.21-2.34,0.94-3.68,3.17l-1.07,1.74l-1.16,1.86l-0.71,0.98l-0.24,0.3c-0.2,0.31-0.16,0.6,0,0.71
			c0.33,0.2,0.58-0.06,0.85-0.35c0.43-0.46,0.96-1.02,2.11-0.28l10.25,6.65c0.92,0.59,0.78,1.29,0.66,1.86
			c-0.07,0.35-0.14,0.63,0.11,0.8c0.12,0.07,0.22,0.06,0.28,0.06c0.06,0,0.14-0.04,0.21-0.16c0.07-0.12,1.46-2.42,1.46-2.42
			l1.47-2.12l0.16-0.22c0.04-0.06,0.17-0.31,0.16-0.4c-0.01-0.1-0.12-0.19-0.12-0.19c-0.33-0.22-0.64,0.09-0.97,0.4
			c-0.52,0.51-1.12,1.08-2.12,0.44l-4.25-2.76c0,0-0.1-0.06-0.1-0.06l-0.25-0.24c-0.03-0.11,0.03-0.27,0.16-0.48l0.23-0.35
			c1.01-1.56,1.01-1.56,1.8-1.53l0.63,0.01l5.03-0.02c2.16-0.06,3.61-0.71,4.45-2c0.34-0.54,0.75-1.23,0.69-1.52L149.14,120.72z
			 M136.05,123.66l-0.1,0.14l-0.34,0.53c-0.4,0.65-0.85,1.37-1.12,1.43l-4.53-2.87c-0.27-0.17-0.41-0.34-0.45-0.51
			c-0.01-0.03-0.01-0.07-0.01-0.11c0-0.26,0.18-0.57,0.43-0.96c0.82-1.27,1.8-2.04,2.85-2.26c0.86-0.18,1.75,0.03,2.64,0.61
			c0.78,0.51,1.24,1.08,1.36,1.7C136.98,122.28,136.42,123.11,136.05,123.66z"/>
	</g>
	<path class="st0" d="M118.62,59.47c-0.47-0.49-1.02-0.84-1.61-1.08c0.89-0.73,1.4-1.67,1.48-2.77c0.1-1.6-0.79-3.29-2.24-4.2
		c-0.63-0.4-1.32-0.62-2.02-0.66c0.6-1.39,0.29-2.98-0.54-4.13c-0.66-0.92-1.69-1.64-2.89-1.78c-0.02-1.05-0.49-2.09-1.38-3.01
		c-1.14-1.16-2.53-1.85-4.09-1.85c-1.55,0-2.94,0.69-4.08,1.85c-0.9,0.91-1.37,1.96-1.38,3.01c-1.2,0.14-2.24,0.86-2.89,1.78
		c-0.82,1.15-1.14,2.75-0.54,4.13c-0.69,0.04-1.38,0.25-2.01,0.66c-1.44,0.92-2.34,2.6-2.23,4.2c0.07,1.09,0.59,2.04,1.48,2.77
		c-0.6,0.23-1.14,0.59-1.61,1.08c-1.24,1.28-1.73,3.23-1.21,4.84c0.51,1.57,1.84,2.62,3.79,2.97l0.93,0.05l0.3-0.01l8.05-0.03
		c-0.01,0.23-0.03,1.25,0,2.06c0.1,2.12-0.83,4.42-2.98,4.96c-0.35,0.09-3,0.59-3.63,0.74c-1.38,0.49-1.28,0.88-0.88,0.88
		c0.22,0,17.63,0,17.84,0c0.39,0,0.49-0.39-0.88-0.88c-0.63-0.15-3.28-0.65-3.62-0.74c-2.16-0.54-3.09-2.84-2.99-4.96
		c0.04-0.82,0.01-1.83,0-2.06l8.05,0.03l0.3,0.01l0.93-0.05c1.95-0.35,3.29-1.41,3.78-2.97C120.35,62.7,119.87,60.75,118.62,59.47z
		 M103.95,65.92l-8.06,0.03l-0.42,0.01c0,0-0.62-0.03-0.63-0.03c-1.41-0.26-2.33-0.97-2.68-2.05c-0.09-0.3-0.14-0.61-0.14-0.93
		c0-0.9,0.37-1.84,1.03-2.53c0.49-0.5,1.55-1.27,3.18-0.81l0-0.01c2.13,0.73,6.27,2.23,7.78,2.77L103.95,65.92z M104.03,60.93
		c-2.29-0.82-7.79-2.78-8.62-3.05c-1.14-0.53-1.78-1.34-1.85-2.34c0-0.05-0.01-0.11-0.01-0.17c0-1.05,0.65-2.17,1.61-2.78
		c0.48-0.31,1.44-0.71,2.56-0.22c0.02,0.02,0.04,0.03,0.06,0.05l6.32,3.86L104.03,60.93z M104.14,54.69
		c-1.61-0.98-4.9-2.99-5.5-3.36l0.02-0.04c-0.06-0.04-0.14-0.06-0.21-0.1c-0.67-0.53-0.96-1.24-0.96-1.94
		c0-0.64,0.23-1.29,0.61-1.82c0.73-1.02,2.17-1.82,3.77-0.7c0.49,0.41,1.85,1.97,2.34,2.54l0.01-0.01L104.14,54.69z M104.27,47.24
		c-0.54-0.61-1.17-1.29-1.55-1.6c-0.49-0.34-0.98-0.56-1.46-0.69c-0.02-0.95,0.59-1.75,0.99-2.15c0.65-0.67,1.48-1.12,2.12-1.29
		L104.27,47.24z M106.33,41.51c0.63,0.17,1.47,0.63,2.12,1.29c0.4,0.4,1.01,1.2,0.98,2.15c-0.48,0.13-0.97,0.34-1.46,0.69
		c-0.38,0.31-1.01,0.99-1.55,1.6L106.33,41.51z M106.45,49.26L106.45,49.26c0.5-0.56,1.86-2.12,2.36-2.53
		c1.61-1.11,3.04-0.32,3.78,0.7c0.38,0.53,0.6,1.18,0.6,1.82c0,0.71-0.29,1.41-0.96,1.94c-0.07,0.04-0.14,0.06-0.22,0.1l0.03,0.04
		c-0.6,0.36-3.89,2.37-5.5,3.36L106.45,49.26z M106.58,56.28l6.32-3.86c0.02-0.02,0.04-0.03,0.06-0.05
		c1.12-0.49,2.07-0.09,2.56,0.22c0.97,0.61,1.61,1.74,1.61,2.78c0,0.05,0,0.11,0,0.17c-0.06,1-0.71,1.81-1.85,2.34
		c-0.83,0.27-6.33,2.23-8.62,3.05L106.58,56.28z M118.53,63.88c-0.34,1.08-1.27,1.78-2.69,2.05c0,0-0.62,0.03-0.62,0.03l-0.42-0.01
		l-8.05-0.03l-0.06-3.54c1.49-0.55,5.64-2.04,7.77-2.77l0,0.01c1.64-0.46,2.7,0.31,3.19,0.81c0.66,0.69,1.03,1.63,1.03,2.53
		C118.67,63.27,118.62,63.59,118.53,63.88z"/>
	<path class="st0" d="M104.78,33.09c-2.31,0-22.28,0-22.28,0s-19.76,0-22.08,0c-8.49,0-26.1,5.79-26.1,26.07c0,1.43,0,21.16,0,21.16
		s0,20.08,0,21.51c0,20.27,17.61,26.06,26.1,26.06c2.32,0,22.08,0,22.08,0s19.96,0,22.28,0c8.49,0,26.1-5.79,26.1-26.06
		c0-1.43,0-21.47,0-21.51c0-1.1,0-19.77,0-21.16C130.88,38.88,113.27,33.09,104.78,33.09z M80.37,114.87
		c-0.31,0.23-1.26,0.82-2.62,0.79c-2.18-0.04-3.81-1.97-3.83-1.98l-0.44-0.54l-0.5,0.49c-0.02,0.02-2.06,1.99-3.99,1.99
		c-2.28,0-3.91-1.92-3.92-1.94l-0.46-0.55l-0.5,0.51c-0.02,0.02-1.84,1.89-4.2,1.89c-2.16,0-3.77-1.94-3.79-1.96l-0.51-0.63
		l-0.5,0.65c-0.06,0.08-1.46,1.88-3.93,1.83c-2.51-0.05-4.03-1.74-4.05-1.75l-0.43-0.49l-0.48,0.43c-0.02,0.02-1.38,1.23-2.85,1.63
		c-1.19-1.56-2.17-3.35-2.88-5.35c0.64,0.11,1.42,0.18,2.24,0.13c1.58-0.09,3.14-1.13,3.89-1.7c0.72,0.62,2.29,1.72,4.54,1.76
		c2.22,0.04,3.74-1.09,4.48-1.8c0.75,0.72,2.29,1.91,4.29,1.91c2.19,0,3.93-1.23,4.7-1.89c0.85,0.62,2.78,1.88,4.56,1.83
		c1.73-0.04,3.47-1.22,4.26-1.83c0.78,0.64,2.53,1.84,4.58,1.89c1.03,0.03,1.81-0.2,2.37-0.45
		C80.37,111.69,80.37,113.47,80.37,114.87z M39.21,58.68c0-13.78,11.03-21.04,20.74-21.04c12.85,0,9.51,0,13.24,0
		c3.73,0,7.16,2.85,7.16,5.59c0,2.74,0,26.47,0,28.73c0,3.63-3.73,6.28-5.98,6.28c-1.18,0-27.36,0-29.32,0
		c-2.65,0-5.84-3.14-5.84-6.03C39.21,70.6,39.21,70.35,39.21,58.68z M39.23,88.83c0-2.89,3.18-6.03,5.83-6.03
		c1.96,0,28.14,0,29.32,0c2.25,0,5.98,2.65,5.98,6.27c0,1.42,0,11.32,0,19.16c-0.25,0.19-1,0.68-2.34,0.64
		c-2.22-0.05-4.13-1.89-4.15-1.91l-0.43-0.42l-0.45,0.4c-0.02,0.02-2.05,1.82-3.88,1.87c-1.82,0.05-4.12-1.86-4.14-1.88l-0.46-0.38
		l-0.42,0.43c-0.02,0.02-1.84,1.89-4.2,1.89c-2.16,0-3.77-1.94-3.79-1.96l-0.51-0.62l-0.5,0.64c-0.06,0.08-1.46,1.88-3.93,1.83
		c-2.51-0.04-4.03-1.73-4.05-1.75l-0.43-0.48l-0.48,0.43c-0.02,0.02-1.86,1.66-3.56,1.76c-1.02,0.06-1.97-0.1-2.62-0.25
		c-0.51-1.87-0.79-3.9-0.79-6.09C39.23,90.69,39.23,90.45,39.23,88.83z M73.21,123.4c-3.73,0-0.39,0-13.24,0
		c-5.59,0-11.62-2.41-15.73-7.09c0.99-0.38,1.86-0.97,2.36-1.35c0.72,0.63,2.29,1.72,4.54,1.77c2.22,0.05,3.74-1.09,4.48-1.8
		c0.75,0.72,2.29,1.92,4.29,1.92c2.14,0,3.85-1.18,4.64-1.85c0.74,0.7,2.34,1.92,4.44,1.92c1.83,0,3.58-1.25,4.41-1.93
		c0.73,0.7,2.31,1.94,4.33,1.98c1.12,0.03,2.02-0.27,2.65-0.58c0,0.65,0,1.15,0,1.42C80.37,120.55,76.94,123.4,73.21,123.4z
		 M126.13,102.37c0,13.78-11.04,21.03-20.74,21.03c-12.85,0-9.51,0-13.24,0c-3.73,0-7.16-2.85-7.16-5.6c0-2.74,0-26.47,0-28.73
		c0-3.62,3.73-6.27,5.98-6.27c1.18,0,27.36,0,29.32,0c2.65,0,5.83,3.14,5.83,6.03C126.13,90.45,126.13,90.69,126.13,102.37z
		 M126.13,72.24c0,2.89-3.19,6.04-5.83,6.04c-1.96,0-28.14,0-29.32,0c-2.25,0-5.98-2.65-5.98-6.28c0-2.26,0-25.99,0-28.74
		c0-2.74,3.43-5.59,7.16-5.59c3.72,0,0.39,0,13.24,0c9.71,0,20.74,7.25,20.74,21.03C126.13,70.37,126.13,70.62,126.13,72.24z"/>
	<g>
		<path class="st0" d="M58.73,41.21c0.02,0.03,0.19,0.42,0.19,1.1c0,0.99-0.35,2.61-2.03,4.74c-1.64,2.1-2.45,4.03-2.45,5.85
			c0,0.25,0.01,0.5,0.04,0.75c0.24,1.95,1.41,3.72,3.56,5.39c2.17,1.69,3.85,3.57,3.85,4.69c0,0.06-0.01,0.11-0.02,0.17
			c-0.16,0.39-0.45,0.77-0.76,1.12c-0.24-1.34-1.19-3.04-3.97-4.99c-2.97-1.96-3.88-6.51-3.89-6.56l-0.22-1.15l-0.89,0.76
			c-0.04,0.04-4.25,3.68-1.02,8.74c0.59,1,1.53,1.87,2.45,2.71c1.66,1.52,2.66,2.52,2.12,3.77c-0.44,0.93-0.91,1.2-1,1.22h-7.51
			l0.71,1.07c0.14,0.2,3.37,4.94,11.53,5.27c8.15,0.35,12.48-4.98,12.66-5.21l0.88-1.12h-9.11c0-0.01-0.08-0.09-0.1-0.24
			c-0.02-0.2,0.45-0.71,0.83-1.13c0.88-0.95,2.07-2.26,2.07-4.3c0-2.26-0.16-3.81-3.25-6.9c-0.02-0.01-0.33-0.31-0.33-0.31
			c-1.59-1.47-3.38-3.14-3.38-4.43c0-1.75,0.98-3.38,1.83-4.83c0.7-1.18,1.31-2.2,1.31-3.16c0-2.94-2.24-3.9-3.43-3.99l-1.18-0.09
			L58.73,41.21z M60.77,67.63c0.07-0.05,1.75-1.53,2.34-2.99l0.02-0.05l0.01-0.05c0.05-0.17,0.06-0.35,0.06-0.53
			c0-2.09-2.63-4.73-4.31-6.04c-1.85-1.44-2.84-2.91-3.04-4.48c-0.02-0.19-0.04-0.38-0.04-0.58c0-1.51,0.71-3.16,2.17-5.01
			c1.87-2.39,2.5-4.2,2.5-5.47c0-0.14-0.02-0.26-0.03-0.39c0.58,0.32,1.1,0.97,1.1,2.3c0,0.58-0.7,1.58-1.27,2.55
			c-0.9,1.52-1.96,3.2-1.96,5.32c0,1.9,1.94,3.7,3.82,5.44l0.31,0.29c2.71,2.71,2.84,3.89,2.84,5.92c0,1.5-0.91,2.49-1.71,3.37
			c-0.61,0.67-1.19,1.29-1.19,2.07c0,0.04,0.01,0.09,0.01,0.14c0.11,0.86,0.72,1.46,1.46,1.46c0,0,3.96,0,6.02,0
			c-1.68,1.46-5.18,3.81-10.39,3.58c-5.09-0.21-8.05-2.29-9.46-3.6c1.76,0,4.68,0,4.68,0c0.79,0,1.65-0.78,2.24-2.03
			c0.18-0.43,0.4-1.08,0.4-1.47c0-1.63-1.31-2.69-2.6-3.87c-0.84-0.76-2.15-2.04-2.64-2.89c-0.74-1.16-0.81-1.74-0.81-2.66
			c0-1.28,0.5-2.26,0.97-2.93c0.52,1.67,1.71,4.55,4.12,6.13c2.99,2.11,3.32,3.69,3.32,4.6c0,0.31-0.09,0.86-0.1,0.88L59.2,68.6
			L60.77,67.63z"/>
	</g>
	<g>
		<path class="st0" d="M62.49,54.49c1.56,1.73,3.77,3.18,4.75,5c1.08,1.96,0.46,2.06,1.23,3.29c0.78-0.88,2.56-3.17,2.77-5.57
			c0.07-2.16-2.21-4.11-3.84-5.5l-0.35-0.3c-1.74-1.5-2.82-4.3-3.24-5.7C61.29,49.17,60.16,51.92,62.49,54.49z M62.61,51.6
			c0-0.96,0.46-2.11,0.8-2.74c0.53,1.04,1.43,2.55,2.66,3.62l0.35,0.3c1.35,1.16,3.32,3.01,3.32,4.39c0,1.35-0.45,1.87-0.86,2.6
			c-0.84-2.58-4.42-5.32-4.78-5.66C63.36,53.4,62.61,52.38,62.61,51.6z"/>
	</g>
	<path class="st0" d="M75.23,88.43c-0.01,0-1.43,0.11-3.32,0.04c-1.94-0.03-8.43,0.15-10.79,3.77c-0.05,0.08-0.1,0.15-0.14,0.24
		c-0.66-0.7-1.34-1.4-2.23-2.07c-2.29-2.43-6.02-3.18-10.24-2.05c-1.89,0.52-3.77,0.63-3.79,0.63l-1.65,0.11l1.24,1.09
		c0.08,0.07,1.96,1.69,5.54,1.41c2.77-0.21,3.63,0.72,4.53,1.7c0,0,0.13,0.14,0.17,0.19c0.02,0.03,0.04,0.06,0.04,0.06
		c0.31,0.44,0.91,1.28,1.69,2.07c-0.76,0-1.51-0.11-1.71-0.18c-0.25-0.13-0.95-0.38-1.49-0.28l-0.42,0.08l-0.12,0.41
		c-0.41,1.44-0.38,2.77,0.11,3.56l0.29,0.47l0.53-0.18c0.26-0.1,1.67-0.53,3.57,0.28c2.59,1.09,4.75,1.08,6.6-0.05
		c1.58-1.03,3.27-0.95,4.01-0.75l1.18,0.32l-0.34-1.18c-0.16-0.58-0.51-0.84-0.84-0.97c-0.27-0.53-0.89-1.5-2.17-2.02l-0.09-0.03
		l-0.1-0.01c-0.01,0-0.02,0-0.03,0c0.43-0.34,0.85-0.8,1.25-1.38c0.88-0.99,3.08-1.51,5.21-2.01c3.31-0.62,4.11-2.16,4.19-2.33
		l0.5-1.06L75.23,88.43z M66.26,97.52c-1.04,0.05-2.23,0.34-3.36,1.07c-1.45,0.88-3.16,0.87-5.33-0.06
		c-1.69-0.71-3.08-0.65-3.91-0.48c-0.03-0.16-0.05-0.32-0.05-0.51c0-0.25,0.08-0.59,0.14-0.91c0.08,0.03,0.16,0.05,0.22,0.08
		c0.43,0.22,2.8,0.55,4.09,0.03l1.18-0.47l-1.04-0.73c-1.14-0.8-2.1-2.17-2.51-2.76l-0.09-0.14l-0.23-0.25
		c-0.98-1.07-2.21-2.42-5.65-2.15c-1.02,0.08-1.84-0.03-2.52-0.19c0.52-0.09,1.07-0.21,1.64-0.37c1.77-0.47,6.19-1.26,8.93,1.7
		l0.04,0.04l0.05,0.04c0.83,0.62,1.49,1.31,2.13,1.99c0.37,0.39,0.74,0.77,1.13,1.13c0.3,0.43,0.68,0.7,0.75,0.75
		c0.12,0.1,0.43,0.32,0.9,0.43c0.62,0.33,1.33,0.57,2.19,0.68C65.65,96.72,66.04,97.17,66.26,97.52z M71.43,90.38
		c-2.48,0.59-4.79,1.14-6.01,2.51c-0.68,0.98-1.32,1.5-1.9,1.58c-0.11,0.02-0.21,0.01-0.3,0c-0.36-0.21-0.69-0.46-1.01-0.75
		c-0.04-0.08-0.08-0.15-0.09-0.24c-0.01-0.09-0.02-0.24,0.13-0.44c1.59-2.45,6.01-3.24,9.63-3.18c0.48,0.01,0.91,0.02,1.31,0.02
		C72.74,90.06,72.17,90.24,71.43,90.38z"/>
	<path class="st0" d="M121.73,93.2c0.06-0.06,0.11-0.18,0.11-0.27v-3.07c0-0.08-0.07-0.15-0.15-0.15h-5.19
		c-0.09,0-0.16-0.07-0.16-0.16v-1.34c0-0.09-0.07-0.16-0.16-0.16h-3.9c-0.09,0-0.16-0.07-0.16-0.16v-1.1c0-0.1-0.07-0.16-0.16-0.16
		H98.05c-0.09,0-0.16,0.06-0.16,0.16v1.1c0,0.09-0.07,0.16-0.16,0.16h-3.9c-0.09,0-0.16,0.07-0.16,0.16v1.34
		c0,0.09-0.07,0.16-0.16,0.16h-5.19c-0.09,0-0.16,0.07-0.16,0.15v3.07c0,0.09,0.05,0.21,0.11,0.27l0.3,0.31
		c0.06,0.05,0.11,0.18,0.11,0.27c0,0.09-0.05,0.21-0.12,0.27l-0.29,0.28c-0.06,0.07-0.11,0.18-0.11,0.27v2.26
		c0,0.09,0.06,0.21,0.11,0.27l0.29,0.28c0.06,0.06,0.12,0.17,0.12,0.26l0,3.18c0,0.09-0.05,0.2-0.11,0.27l-0.29,0.27
		c-0.06,0.07-0.11,0.19-0.11,0.27v2.61c0,0.07,0.06,0.2,0.11,0.26l0.29,0.27c0.06,0.06,0.11,0.17,0.11,0.26l-0.01,5.37
		c0,0.09-0.04,0.21-0.11,0.27l-0.28,0.27c-0.06,0.06-0.11,0.18-0.11,0.26v2.72c0,0.09,0.07,0.16,0.16,0.16l8.24,0.01
		c0.09,0,0.16-0.06,0.16-0.16v-2.74c0-0.08-0.05-0.21-0.11-0.28l-0.31-0.34c-0.06-0.07-0.11-0.19-0.11-0.27l0-5.27
		c0-0.09,0.06-0.2,0.12-0.26l0.29-0.27c0.07-0.06,0.12-0.19,0.12-0.26v-2.61c0-0.08-0.05-0.2-0.12-0.27l-0.11-0.1
		c-0.06-0.06-0.1-0.18-0.07-0.26c0,0,0.13-0.57,0.45-0.91c0.4-0.42,1.04-0.63,1.9-0.63c1.48,0,2.33,1.42,2.33,1.42
		c0.04,0.08,0.03,0.18-0.04,0.24l-0.25,0.24c-0.07,0.07-0.11,0.19-0.11,0.27v2.61c0,0.07,0.04,0.2,0.11,0.26l0.28,0.27
		c0.07,0.06,0.12,0.17,0.12,0.26l-0.01,5.37c0,0.09-0.06,0.21-0.12,0.27l-0.28,0.27c-0.07,0.06-0.11,0.18-0.11,0.26v2.72
		c0,0.09,0.07,0.16,0.15,0.16h8.27c0.09,0,0.15-0.07,0.15-0.16v-2.72c0-0.08-0.04-0.2-0.11-0.26l-0.28-0.27
		c-0.06-0.06-0.11-0.18-0.11-0.27l-0.01-5.37c0-0.08,0.05-0.2,0.11-0.26l0.29-0.27c0.06-0.06,0.11-0.19,0.11-0.26v-2.61
		c0-0.08-0.04-0.2-0.11-0.27l-0.26-0.24c-0.06-0.05-0.08-0.16-0.03-0.24c0,0,0.85-1.42,2.33-1.42c0.86,0,1.49,0.21,1.9,0.63
		c0.33,0.35,0.46,0.91,0.46,0.91c0.02,0.08-0.02,0.2-0.08,0.26l-0.11,0.1c-0.06,0.07-0.11,0.19-0.11,0.27v2.61
		c0,0.07,0.05,0.2,0.11,0.26l0.29,0.27c0.06,0.06,0.11,0.18,0.11,0.26l0.01,5.27c0,0.09-0.04,0.21-0.11,0.27l-0.31,0.34
		c-0.06,0.07-0.11,0.19-0.11,0.28v2.74c0,0.09,0.07,0.16,0.16,0.16l8.25-0.01c0.08,0,0.15-0.07,0.15-0.16v-2.72
		c0-0.08-0.05-0.2-0.11-0.26l-0.28-0.27c-0.06-0.06-0.11-0.18-0.11-0.27l-0.01-5.37c0-0.08,0.06-0.2,0.12-0.26l0.28-0.27
		c0.06-0.06,0.11-0.19,0.11-0.26v-2.61c0-0.08-0.05-0.2-0.11-0.27l-0.29-0.27c-0.06-0.06-0.12-0.18-0.12-0.27l0-3.18
		c0-0.09,0.05-0.2,0.11-0.26l0.29-0.28c0.06-0.06,0.11-0.18,0.11-0.27v-2.26c0-0.09-0.05-0.2-0.11-0.27l-0.29-0.28
		c-0.07-0.06-0.12-0.18-0.12-0.27c0-0.09,0.05-0.21,0.11-0.27L121.73,93.2z M95.24,89.4c0-0.04,0.03-0.08,0.08-0.08h3.72
		c0.04,0,0.08-0.03,0.08-0.07v-1.07c0-0.04,0.04-0.08,0.08-0.08h11.63c0.04,0,0.08,0.04,0.08,0.08v1.07c0,0.04,0.03,0.07,0.08,0.07
		h3.72c0.04,0,0.08,0.03,0.08,0.08V90c0,0.05-0.03,0.09-0.08,0.09H95.32c-0.04,0-0.08-0.03-0.08-0.09V89.4z M89.83,91.27
		c0-0.02,0.02-0.04,0.04-0.04h30.27c0.03,0,0.04,0.02,0.04,0.04v0.52c0,0.03-0.02,0.05-0.04,0.05H89.87c-0.02,0-0.04-0.02-0.04-0.05
		V91.27z M119.62,93.03v1.28c0,0.02-0.02,0.04-0.04,0.04H90.43c-0.02,0-0.04-0.03-0.04-0.04v-1.28c0-0.02,0.02-0.03,0.04-0.03h29.15
		C119.6,92.99,119.62,93.01,119.62,93.03z M89.83,95.34c0-0.02,0.02-0.04,0.04-0.04h30.27c0.03,0,0.04,0.02,0.04,0.04v0.58
		c0,0.02-0.02,0.03-0.04,0.03H89.87c-0.02,0-0.04-0.01-0.04-0.03V95.34z M95.14,112.88c0,0.02-0.02,0.04-0.04,0.04h-5.25
		c-0.02,0-0.04-0.02-0.04-0.04v-0.57c0-0.02,0.02-0.03,0.04-0.03h5.25c0.02,0,0.04,0.01,0.04,0.03V112.88z M90.39,111.12v-6.81
		c0-0.03,0.02-0.04,0.04-0.04h4.14c0.02,0,0.04,0.01,0.04,0.04v6.81c0,0.02-0.02,0.04-0.04,0.04h-4.14
		C90.41,111.16,90.39,111.14,90.39,111.12z M95.14,103.19c0,0.01-0.02,0.03-0.04,0.03h-5.25c-0.02,0-0.04-0.02-0.04-0.03v-0.57
		c0-0.02,0.02-0.04,0.04-0.04h5.25c0.02,0,0.04,0.02,0.04,0.04V103.19z M107.69,112.88c0,0.02-0.02,0.04-0.04,0.04h-5.29
		c-0.02,0-0.04-0.02-0.04-0.04v-0.57c0-0.02,0.02-0.03,0.04-0.03h5.29c0.02,0,0.04,0.01,0.04,0.03V112.88z M102.85,111.12v-6.81
		c0-0.03,0.01-0.04,0.04-0.04h4.24c0.02,0,0.04,0.01,0.04,0.04v6.81c0,0.02-0.02,0.04-0.04,0.04h-4.24
		C102.86,111.16,102.85,111.14,102.85,111.12z M107.69,103.19c0,0.01-0.02,0.03-0.04,0.03h-5.29c-0.02,0-0.04-0.02-0.04-0.03v-0.57
		c0-0.02,0.02-0.04,0.04-0.04h5.29c0.02,0,0.04,0.02,0.04,0.04V103.19z M111.3,97.99c-1.22,0-2.22,0.37-2.96,1.12
		c-1.24,1.25-1.27,2.54-1.27,2.63h-4.12c0-0.08-0.03-1.38-1.28-2.63c-0.74-0.74-1.74-1.12-2.96-1.12c-1.32,0-2.35,0.38-3.06,1.13
		c-1,1.05-0.96,2.47-0.95,2.62l-4.3,0c-0.02,0-0.04-0.01-0.04-0.04v-4.69c0-0.02,0.03-0.04,0.04-0.04h29.21
		c0.02,0,0.04,0.02,0.04,0.04v4.69c0,0.03-0.01,0.04-0.04,0.04l-4.3,0c0.01-0.16,0.04-1.58-0.95-2.62
		C113.65,98.37,112.62,97.99,111.3,97.99z M120.2,112.88c0,0.02-0.01,0.04-0.03,0.04h-5.25c-0.02,0-0.04-0.02-0.04-0.04v-0.57
		c0-0.02,0.02-0.03,0.04-0.03h5.25c0.02,0,0.03,0.01,0.03,0.03V112.88z M115.4,111.12v-6.81c0-0.03,0.02-0.04,0.04-0.04h4.14
		c0.03,0,0.04,0.01,0.04,0.04v6.81c0,0.02-0.02,0.04-0.04,0.04h-4.14C115.41,111.16,115.4,111.14,115.4,111.12z M120.2,103.19
		c0,0.01-0.01,0.03-0.03,0.03h-5.25c-0.02,0-0.04-0.02-0.04-0.03v-0.57c0-0.02,0.02-0.04,0.04-0.04h5.25c0.02,0,0.03,0.02,0.03,0.04
		V103.19z"/>
</g>
</svg>
