<?xml version="1.0" encoding="utf-8"?>
<!-- Generator: Adobe Illustrator 28.0.0, SVG Export Plug-In . SVG Version: 6.00 Build 0)  -->
<svg version="1.1" id="Layer_1" xmlns="http://www.w3.org/2000/svg" xmlns:xlink="http://www.w3.org/1999/xlink" x="0px" y="0px"
	 viewBox="0 0 614.7 158.7" style="enable-background:new 0 0 614.7 158.7;" xml:space="preserve">
<style type="text/css">
	.st0{fill:#FFFFFF;}
</style>
<g>
	<g>
		<path class="st0" d="M214.9,51.4c0,10.9-3.1,20-17.9,20c-10.1,0-15.4-4.7-15.4-15.1V38.8c0-4.6-5.6-2.9-5.6-4.9
			c0-0.7,0.7-0.9,1.1-0.9c0.7,0,4.7,0.2,7.4,0.2c2.7,0,6.6-0.2,7.6-0.2c0.5,0,0.6,0.4,0.6,0.8c0,1.8-4.5-1-4.5,7.8v11.7
			c0,8.2,2.1,15.1,11.8,15.1c10.7,0,12.1-8.5,12.1-17.6V40c0-6.2-6.6-4.5-6.6-6.5c0-0.9,0.9-0.6,1.6-0.6c1.6,0.1,3,0.2,4.5,0.2
			c1.8,0,3.4-0.1,6.1-0.2c0.6,0,1,0.1,1,0.7c0,1.5-3.8-0.5-3.8,5.6L214.9,51.4L214.9,51.4z"/>
		<path class="st0" d="M226.8,43.3c0-10.3-6-6.8-6-9.4c0-0.5,0.3-0.9,0.9-0.9c1,0,2,0.2,3,0.2c1.4,0,2.8-0.2,5.6-0.2
			c1.7,0,1.1,0.4,2,1.4l21.6,23.7c0.7,0.8,1.4,1.4,1.7,1.4c0.3,0,0.4-0.7,0.4-2V39.6c0-4.9-6.6-3.9-6.6-5.7c0-0.4,0.2-0.9,0.9-0.9
			c0.9,0,2.4,0.2,6.1,0.2c3.4,0,5.3-0.2,5.8-0.2c1,0,1,0.5,1,0.7c0,1.6-4.6,0.3-4.6,6v30.2c0,1.2,0,1.6-0.6,1.6
			c-0.8,0-1-0.3-1.4-0.7l-25.9-28c-0.4-0.4-0.7-0.7-1-0.7c-0.3,0-0.4,0.4-0.4,0.9v18.3c0,10.3,6.9,6.7,6.9,9.2c0,0.8-1.4,0.7-2,0.7
			c-2.6,0-4.5-0.2-6.4-0.2c-1.7,0-3.2,0.2-4.6,0.2c-0.6,0-1.7,0.3-1.7-0.7c0-2.2,5.2-1.2,5.2-6.7L226.8,43.3L226.8,43.3z"/>
		<path class="st0" d="M279,64.4c0,6.6,6,4.1,6,5.9c0,0.6-0.5,0.8-1.7,0.8c-2,0-4-0.2-8.2-0.2c-2.3,0-4.6,0.2-6,0.2
			c-0.5,0-0.6-0.4-0.6-0.7c0-1.9,3.9-0.5,3.9-5.6V39c0-4.9-6.1-3.4-6.1-5.3c0-0.9,1.3-0.8,1.8-0.8c2.1,0,4.2,0.2,6.1,0.2
			c1.9,0,3.9-0.2,6.9-0.2c1.6,0,1.9,0.1,1.9,0.8c0,1.8-4-0.1-4,5L279,64.4L279,64.4z"/>
		<path class="st0" d="M306.6,70.2c-0.6,1.4-0.9,1.7-1.5,1.7c-0.5,0-1.1-0.6-2-2.8l-13.4-31.3c-0.9-2.1-1.7-2.7-3.9-3.2
			c-0.2-0.1-0.9-0.4-0.9-0.8c0-1.3,1.7-0.9,2.5-0.9c1.8,0,3.6,0.2,5.4,0.2c3.5,0,5-0.2,5.9-0.2c1.7,0,2-0.1,2,0.9
			c0,1.5-3.2,0.6-3.2,2.9c0,1.6,0.7,4.1,2,7.4l7,17.3c0.2,0.4,0.4,1.1,0.8,1.1c0.3,0,0.5-0.8,0.7-1.1l7.4-16.3
			c1.6-3.6,1.7-5.5,1.7-6.3c0-5-5.4-3.1-5.4-4.9c0-1,1.6-0.9,2.2-0.9c1.6,0,3.1,0.2,4.6,0.2c1.5,0,3-0.2,4.5-0.2
			c1.1,0,1.9-0.2,1.9,0.8c0,1.2-2.2,1-3.6,4.1L306.6,70.2z"/>
		<path class="st0" d="M338.4,46.8c0,2.3,0,2.7,2.3,2.7h3.4c4.6,0,4.8-5,5.9-5c0.4,0,1-0.1,1,1.3l0.4,9.6c0.1,0.7,0.4,2.6-0.9,2.6
			c-1.7,0-0.2-5.7-5.8-5.7h-4c-2.5,0-2.3,0.6-2.3,3.8V63c0,3.3-0.2,5.3,3.7,5.3c13.3,0,12.6-7,14.6-7c0.2,0,0.6,0.2,0.6,1.2
			c0,4.2-3.2,8.6-7.6,8.6c-8.2,0-11.4-0.2-14.1-0.2c-1.7,0-3.9,0.2-6.9,0.2c-0.7,0-1-0.3-1-0.6c0-2.5,4.1,0.4,4.1-6.1V39.2
			c0-4.8-6.1-3.1-6.1-5.3c0-0.5,0.4-0.9,1.2-0.9c2.2,0,6.1,0.2,14.3,0.2c3.8,0,7.5-0.2,12.3-0.2c0.7,0,1.1,0.5,1.1,1l0.2,5.3
			c0.1,0.7,0.3,2.5-0.9,2.5c-2.5,0,1.7-6.3-8.7-6.3c-6.5,0-6.7,0.1-6.7,3.8L338.4,46.8L338.4,46.8z"/>
		<path class="st0" d="M364.7,39.7c0-6-5.9-4-5.9-6c0-0.5,0.5-0.8,1.2-0.8c2.5,0,2.9,0.2,6.3,0.2c3.6,0,7.2-0.2,10.9-0.2
			C389,33,390,40.5,390,43c0,3.4-1.6,5.4-3.1,6.7c-1.6,1.2-3.1,1.7-3.1,2.2c0,0.3,4.6,8.1,8.5,14.9c0.5,0.9,1.5,0.9,1.9,0.9
			c0.5,0,1.1-0.3,1.6-0.3c0.5,0,0.8,0.3,0.8,0.8c0,1.7-3.5,2.8-5.7,2.8c-4.2,0-6-3.4-7.6-6.5l-4.5-8.5c-1.2-2.4-2.2-2.8-4.9-2.8
			c-2.9,0-2.5,0.4-2.5,2.2v9.3c0,5.8,5.3,3.6,5.3,5.5c0,0.5-0.4,0.8-1.7,0.8c-0.9,0-2.4-0.2-4.6-0.2c-2.9,0-5.6,0.2-8.3,0.2
			c-0.6,0-1.7,0.2-1.7-0.9c0-1.7,4.4,0.1,4.4-6.7L364.7,39.7L364.7,39.7z M371.3,49.4c0,1.3,2,1.3,3.6,1.3c8.2,0,8.5-3,8.5-6.2
			c0-5.3-3-9.2-8.4-9.2c-2,0-3.7,0-3.7,3.2V49.4z"/>
		<path class="st0" d="M398.8,60c-0.2-0.8-0.7-2.3,0.6-2.3c0.9,0,1,0.5,1.2,1.2c1.7,5.2,5.1,10.1,11,10.1c4.2,0,7.4-2.6,7.4-6.9
			c0-4.6-3.4-5.3-12-9.1c-4.6-2-7.8-4.1-7.8-9.8c0-6.2,4.3-10.7,10.6-10.7c4.4,0,6.7,2.1,8.3,2.1c0.7,0,2-0.9,2.7-0.9
			c0.8,0,0.6,0.8,0.8,2l0.6,7.2c0.1,1.2-0.1,1.8-1.2,1.8c-1.2,0-2-10-11.3-10c-3.5,0-6,2-6,5.7c0,3.6,3,4.3,10.2,7.5
			c5.8,2.5,9.3,4.8,9.3,11.7c0,7-5,11.8-12,11.8c-3.3,0-6-1.3-9.1-2c-1.3-0.3-1.3-0.8-1.6-2L398.8,60z"/>
		<path class="st0" d="M439.5,64.4c0,6.6,6,4.1,6,5.9c0,0.6-0.5,0.8-1.7,0.8c-2,0-4-0.2-8.2-0.2c-2.3,0-4.6,0.2-6,0.2
			c-0.5,0-0.6-0.4-0.6-0.7c0-1.9,3.9-0.5,3.9-5.6V39c0-4.9-6.1-3.4-6.1-5.3c0-0.9,1.3-0.8,1.8-0.8c2.1,0,4.2,0.2,6.1,0.2
			c1.9,0,3.9-0.2,6.9-0.2c1.6,0,1.9,0.1,1.9,0.8c0,1.8-4-0.1-4,5L439.5,64.4L439.5,64.4z"/>
		<path class="st0" d="M462.2,39c0-2.6-0.5-2.8-2.7-2.8h-4.5c-6.1,0-4.5,7-6.9,7c-1.1,0-0.8-1.2-0.7-1.9l0.9-7.1
			c0.1-0.5,0.1-1.3,0.9-1.3c5,0,8.6,0.2,16.5,0.2S477,33,482,33c0.8,0,0.8,0.8,0.9,1.3l0.6,5c0.1,0.6,0.7,2.7-0.7,2.7
			c-2.2,0-0.4-6-6.6-5.8h-4.6c-2.2,0-2.7,0.3-2.7,2.8v24.3c0,6.6,6.9,5,6.9,6.6c0,1.3-1.1,1.1-2.6,1.1c-2.1,0-3.9-0.2-7.5-0.2
			S460.2,71,458,71c-1,0-1.9,0.1-1.9-1.1c0-2.1,6.1,0.5,6.1-5.9L462.2,39L462.2,39z"/>
		<path class="st0" d="M490.9,37.9c-2.1-3.9-5.4-2.5-5.4-4.2c0-0.7,0.6-0.7,1.9-0.7c1,0,2.3,0.2,4.9,0.2c2.3,0,4.6,0,7.9-0.2
			c0.8,0,0.9,0.4,0.9,0.7c0,1.2-3,0.8-3,2.6c0,0.5,0.1,1.1,0.8,2.5l4.8,10c0.9,1.8,1.2,2.5,1.7,2.5c0.3,0,0.7-0.4,1.3-1.6l4.9-8.9
			c1-1.8,1-2.6,1-3c0-3.5-5.2-2.4-5.2-4c0-0.5,0.4-0.8,1-0.8c0.7,0,1.8,0.2,4.6,0.2c4.1,0,4.7-0.2,6.2-0.2c0.7,0,1,0.2,1,0.6
			c0,1.5-2.4,0.4-5.6,6.3l-7,13.3c-0.5,1.1-0.7,1.5-0.7,3.4v8c0,6.8,6.6,3.1,6.6,5.8c0,0.6-0.8,0.7-1.7,0.7c-0.4,0-1.3-0.2-8-0.2
			c-4.8,0-6.4,0.2-7.9,0.2c-0.9,0-1.5-0.1-1.5-0.6c0-2.4,5.9,0.5,5.9-6.3v-7c0-1.8-0.2-2.2-0.9-3.4L490.9,37.9z"/>
		<path class="st0" d="M555.4,32.5c10.5-0.1,18.5,6.8,18.5,18.2c0,7.5-3.3,20.7-20.4,20.7c-10.8,0-18-7.3-18-18.2
			C535.4,41.5,542.6,32.6,555.4,32.5 M555,69.1c9.2-0.2,12.2-7.4,12.2-16.3c0-11.9-6.5-18.1-13.5-18C544.7,35,542,42.4,542,50.2
			C542,58,545.4,69.3,555,69.1"/>
		<path class="st0" d="M587.4,46.8c0,2.3,0,2.7,2.3,2.7h3.4c4.6,0,4.8-5,5.9-5c0.4,0,1-0.1,1,1.3l0.4,9.6c0.1,0.7,0.4,2.6-0.9,2.6
			c-1.7,0-0.2-5.7-5.8-5.7h-4c-2.5,0-2.3,0.6-2.3,3.8v8c0,6,6.1,4.6,6.1,6.1c0,1.1-1.1,0.9-2.5,0.9c-2,0-4-0.2-6.4-0.2
			c-1.7,0-3.9,0.2-6.9,0.2c-0.7,0-1-0.3-1-0.6c0-2.5,4.1,0.4,4.1-6.1V39.2c0-4.8-6.1-3.1-6.1-5.3c0-0.5,0.4-0.9,1.2-0.9
			c2.2,0,6.1,0.2,14.3,0.2c3.8,0,7.5-0.2,12.3-0.2c0.7,0,1.1,0.5,1.1,1l0.2,5.3c0,0.7,0.3,2.5-0.9,2.5c-2.5,0,1.7-6.3-8.7-6.3
			c-6.5,0-6.7,0.1-6.7,3.8L587.4,46.8L587.4,46.8z"/>
		<path class="st0" d="M182.5,91.6c0-9-6.9-5.4-6.9-8.6c0-1,0.8-1,1.1-1c0.4,0,0.9,0.3,3.9,0.3c5.5,0,11.1-0.3,16.6-0.3
			c16,0,16,9.7,16,11.2c0,4.1-2.5,7.7-7.1,9.2v0.1c7.9,2,10.4,5.5,10.4,11.4c0,8.6-6,14.2-16.6,14.2c-9.7,0-13-0.3-16.2-0.3
			c-1.6,0-3.2,0.3-4.6,0.3c-1.5,0-2.1-0.1-2.1-1.1c0-2.2,5.6-0.4,5.6-6.7L182.5,91.6L182.5,91.6z M190.5,98.5c0,3.2,0.6,3.4,4.4,3.7
			h3.9c5,0,6.8-2.5,6.8-7.3c0-6-4.8-10.2-10.6-10.2c-4.4,0-4.6,2.5-4.6,6.2V98.5z M190.5,117.5c0,6.2,1.7,8,8,8
			c6.4,0,9.7-4.2,9.7-10.6c0-3.9-1.9-9.8-13.8-9.8c-3.9,0-4,1.6-4,5L190.5,117.5L190.5,117.5z"/>
		<path class="st0" d="M226,90.2c0-7.3-7.1-4.9-7.1-7.2c0-0.7,0.6-1,1.4-1c3,0,3.5,0.3,7.6,0.3c4.4,0,8.8-0.3,13.2-0.3
			c14.3,0,15.6,9.2,15.6,12.2c0,4.2-1.9,6.6-3.8,8.2c-1.9,1.5-3.8,2.1-3.8,2.7c0,0.4,5.5,9.8,10.2,18c0.6,1,1.8,1,2.4,1
			c0.6,0,1.3-0.4,2-0.4c0.6,0,1,0.4,1,0.9c0,2-4.3,3.5-6.9,3.5c-5.1,0-7.2-4.1-9.2-7.9l-5.5-10.3c-1.5-2.9-2.7-3.4-5.9-3.4
			c-3.5,0-3.1,0.4-3.1,2.7v11.3c0,7,6.4,4.3,6.4,6.7c0,0.6-0.5,1-2,1c-1.1,0-2.9-0.3-5.6-0.3c-3.5,0-6.8,0.3-10,0.3
			c-0.7,0-2.1,0.2-2.1-1.1c0-2.1,5.3,0.1,5.3-8.2L226,90.2L226,90.2z M234,101.8c0,1.6,2.4,1.6,4.4,1.6c9.9,0,10.3-3.7,10.3-7.5
			c0-6.4-3.6-11.2-10.2-11.2c-2.4,0-4.4,0-4.4,3.9V101.8z"/>
		<path class="st0" d="M281.8,120c0,8,7.3,5,7.3,7.1c0,0.7-0.6,1-2.1,1c-2.4,0-4.8-0.3-9.9-0.3c-2.8,0-5.6,0.3-7.3,0.3
			c-0.6,0-0.7-0.5-0.7-0.8c0-2.3,4.7-0.6,4.7-6.8V89.3c0-5.9-7.4-4.1-7.4-6.4c0-1.1,1.6-0.9,2.2-0.9c2.5,0,5.1,0.3,7.4,0.3
			c2.3,0,4.7-0.3,8.4-0.3c2,0,2.3,0.1,2.3,0.9c0,2.2-4.9-0.1-4.9,6.1L281.8,120L281.8,120z"/>
		<path class="st0" d="M297.4,89.9c0-6.7-7-4.5-7-6.9c0-0.7,0.7-1.1,1.2-1.1c1.2,0,2.5,0.3,9,0.3c3.4,0,6.7-0.3,10.1-0.3
			c8.7,0,27.7,1.1,27.7,21.4c0,18.8-17,24.7-24,24.7c-7.6,0-11.2-0.3-13.6-0.3c-2,0-4,0.3-6,0.3c-1.1,0-2.6,0.3-2.6-0.9
			c0-2.5,5.2,0,5.2-5.9L297.4,89.9L297.4,89.9z M305.4,120.9c0,4.3,4.8,4.8,7.4,4.8c10.2,0,17.4-6.7,17.4-20.1
			c0-6.2-3.2-21.1-19.5-21.1c-4.9,0-5.3,1.6-5.3,6.1V120.9z"/>
		<path class="st0" d="M385.1,97.2c0,0.8-0.4,1.2-1.6,1.2c-1.4,0-1.4-14.2-18.6-14.2c-6,0-14.7,4-14.7,20.5
			c0,8.9,4.6,20.8,15.1,20.8c11.7,0,11.9-5.5,11.9-9.3c0-10.2-7.8-5.7-7.8-8.2c0-1.9,2.1-1.4,3.2-1.4c3.1,0,6.1,0.3,9.1,0.3
			c2.4,0,4.7-0.3,7-0.3c0.3,0,0.7,0.3,0.7,0.9c0,2.8-4.5-0.7-4.5,7.6c0,2.7,0.2,4.5,0.2,5.4c0,1-0.1,1.4-0.6,1.7
			c-6.2,3.4-13.4,6.4-20.5,6.4c-19.1,0-22-16.7-22-21.8c0-10.9,6.7-25.4,23.1-25.4c9.1,0,14.5,4.2,16.3,4.2c1.4,0,1.6-1.8,2.6-1.8
			c1,0,1,1.4,1,2.5L385.1,97.2L385.1,97.2z"/>
		<path class="st0" d="M406.1,98.7c0,2.8,0,3.2,2.8,3.2h4.1c5.6,0,5.8-6,7.1-6c0.5,0,1.2-0.1,1.2,1.6l0.5,11.6
			c0.1,0.8,0.5,3.2-1.1,3.2c-2.1,0-0.3-6.9-7-6.9h-4.8c-3,0-2.7,0.8-2.7,4.6v8.3c0,4-0.3,6.4,4.4,6.4c16.2,0,15.2-8.5,17.7-8.5
			c0.3,0,0.7,0.2,0.7,1.4c0,5.1-3.8,10.4-9.2,10.4c-9.9,0-13.8-0.3-17.1-0.3c-2,0-4.8,0.3-8.3,0.3c-0.9,0-1.2-0.3-1.2-0.7
			c0-3,5,0.5,5-7.4V89.4c0-5.9-7.4-3.8-7.4-6.4c0-0.6,0.5-1.1,1.4-1.1c2.7,0,7.4,0.3,17.3,0.3c4.6,0,9.1-0.3,14.9-0.3
			c0.9,0,1.3,0.7,1.3,1.2l0.3,6.4c0.1,0.8,0.4,3-1.1,3c-3.1,0,2-7.6-10.6-7.6c-7.9,0-8.1,0.1-8.1,4.6L406.1,98.7L406.1,98.7z"/>
		<path class="st0" d="M445.4,119.2c0,8.1,6.6,5.7,6.6,7.9c0,1.1-0.6,1-1.6,1c-4.6,0-7.4-0.3-8.9-0.3c-2.6,0-7.6,0.3-8,0.3
			c-0.2,0-1.4,0.1-1.4-1c0-1.9,5.2-0.4,5.2-8.6V89.8c0-6.9-6.8-4.2-6.8-6.7c0-0.4,0.3-1.2,1.8-1.2c0.5,0,4,0.3,9,0.3
			c0.9,0,5.5-0.2,10.2-0.3c8.3-0.1,16.4,3.1,16.4,12.7c0,8.1-6.1,13.1-13.8,13.1c-6.4,0-6.7-1.6-6.7-1.9c0-0.5,0.1-1.2,0.9-1.2
			c0.5,0,1.6,0.4,3.1,0.4c7.9,0,8.5-7.4,8.5-9.1c0.1-1.7-0.5-11.2-10.6-11.2c-2.9,0-4,1.3-4,4.2L445.4,119.2L445.4,119.2z"/>
		<path class="st0" d="M495.5,81.4c12.7-0.1,22.4,8.3,22.4,22.1c0,9.1-4,25.1-24.8,25.1c-13.1,0-21.9-8.8-21.9-22
			C471.2,92.3,479.9,81.5,495.5,81.4 M495,125.8c11.2-0.2,14.9-8.9,14.9-19.8c0-14.4-8-22-16.4-21.8c-11,0.2-14.3,9.2-14.3,18.6
			C479.2,112.3,483.4,125.9,495,125.8"/>
		<path class="st0" d="M525.1,90.2c0-7.3-7.1-4.9-7.1-7.2c0-0.7,0.7-1,1.4-1c3,0,3.5,0.3,7.6,0.3c4.4,0,8.8-0.3,13.2-0.3
			c14.3,0,15.6,9.2,15.6,12.2c0,4.2-1.9,6.6-3.8,8.2c-1.9,1.5-3.8,2.1-3.8,2.7c0,0.4,5.5,9.8,10.2,18c0.6,1,1.8,1,2.3,1
			c0.7,0,1.3-0.4,2-0.4c0.6,0,1,0.4,1,0.9c0,2-4.3,3.5-6.9,3.5c-5.2,0-7.2-4.1-9.2-7.9l-5.5-10.3c-1.5-2.9-2.7-3.4-5.9-3.4
			c-3.5,0-3.1,0.4-3.1,2.7v11.3c0,7,6.5,4.3,6.5,6.7c0,0.6-0.5,1-2,1c-1.1,0-2.9-0.3-5.6-0.3c-3.5,0-6.8,0.3-10,0.3
			c-0.7,0-2.1,0.2-2.1-1.1c0-2.1,5.3,0.1,5.3-8.2V90.2z M533.1,101.8c0,1.6,2.4,1.6,4.4,1.6c9.9,0,10.3-3.7,10.3-7.5
			c0-6.4-3.7-11.2-10.2-11.2c-2.4,0-4.4,0-4.4,3.9L533.1,101.8L533.1,101.8z"/>
		<path class="st0" d="M577.5,89.3c0-3.1-0.7-3.4-3.3-3.4h-5.5c-7.4,0-5.4,8.5-8.3,8.5c-1.4,0-1-1.4-0.8-2.3l1-8.6
			c0.1-0.7,0.1-1.6,1-1.6c6,0,10.4,0.3,19.9,0.3c9.5,0,13.9-0.3,19.9-0.3c1,0,1,0.9,1,1.6l0.7,6c0.1,0.8,0.8,3.3-0.8,3.3
			c-2.6,0-0.5-7.2-8-7h-5.5c-2.7,0-3.3,0.3-3.3,3.4v29.5c0,8,8.3,6.1,8.3,8c0,1.6-1.3,1.4-3.2,1.4c-2.6,0-4.8-0.3-9.1-0.3
			c-4.4,0-6.5,0.3-9.1,0.3c-1.2,0-2.3,0.1-2.3-1.4c0-2.5,7.4,0.6,7.4-7.2L577.5,89.3L577.5,89.3z"/>
	</g>
</g>
<g>
	<g>
		<g>
			<path class="st0" d="M11.9,82.8c0,0-0.8,0-0.8,0l-0.4,0l-0.2,0c-0.1,0-0.2,0.1-0.2,0.2c0,0.2,0.2,0.3,0.3,0.3
				c0.2,0.1,0.6,0.2,0.6,1.3l-0.1,4c0,0.6-0.3,0.7-0.5,0.8c-0.1,0.1-0.3,0.1-0.3,0.3c0,0.1,0.1,0.2,0.3,0.2l0.2,0l0.6,0l0.9,0
				c0,0,0.1,0,0.2-0.1c0.1-0.1,0.1-0.2,0.1-0.2c0-0.2-0.2-0.3-0.3-0.3c-0.3-0.1-0.6-0.2-0.6-1.2l0,0c0,0,0.1-2.6,0.1-2.7
				c0.1,0.2,1.6,4.2,1.6,4.2c0.1,0.2,0.1,0.3,0.3,0.3c0.2,0,0.2-0.2,0.3-0.3l1.6-3.9c0,0,0.1-0.2,0.1-0.3c0,0.1,0,0.2,0,0.2l0.1,3
				c0,0.1,0,0.1,0,0.1c0,0.5-0.2,0.6-0.4,0.7c-0.1,0.1-0.2,0.1-0.2,0.3c0,0,0,0.1,0.1,0.2c0.1,0.1,0.4,0.1,0.4,0.1
				c0.1,0,0.3,0,0.3,0l0.7,0l0.7,0c0.3,0,0.5,0,0.5-0.3c0-0.2-0.2-0.2-0.3-0.3c-0.2-0.1-0.5-0.2-0.5-0.9L17,84.1
				c0-0.7,0.2-0.7,0.5-0.8c0.1-0.1,0.3-0.1,0.3-0.3c0-0.2-0.2-0.2-0.3-0.2l-0.3,0l-0.2,0l-0.2,0l-0.3,0c-0.2,0-0.3,0.2-0.3,0.2
				l-2,4.8c0,0,0,0.1-0.1,0.1c0,0,0-0.1,0-0.1l-1.9-4.8C12.1,82.8,12,82.8,11.9,82.8z"/>
		</g>
		<g>
			<path class="st0" d="M17.8,86.6c0,1.2,0.6,3.4,3,3.4c1.8,0,2.8-1.5,2.8-2c0-0.1-0.1-0.2-0.2-0.2c-0.1,0-0.2,0.1-0.4,0.3
				c-0.3,0.4-0.9,1-1.7,1c-1.6,0-2.2-2-2.2-3.2s0.6-2.6,1.8-2.6c1.2,0,1.8,1.2,2.1,1.8c0.1,0.2,0.2,0.4,0.3,0.4h0c0,0,0,0,0.1-0.1
				c0.1-0.1,0.1-0.4,0.1-0.4v0l-0.1-1.9c0-0.1,0-0.2-0.2-0.2c-0.1,0-0.2,0.1-0.2,0.2c0,0-0.1,0.1-0.1,0.1l-0.3-0.2
				c-0.4-0.2-0.9-0.5-1.6-0.5C18.6,82.7,17.8,85,17.8,86.6z"/>
		</g>
		<g>
			<path class="st0" d="M25.2,82.8c0,0-0.8,0-0.8,0l-0.4,0l-0.2,0c-0.1,0-0.2,0.1-0.2,0.2c0,0.2,0.2,0.3,0.3,0.3
				c0.2,0.1,0.6,0.2,0.6,1.3l-0.1,4c0,0.6-0.3,0.7-0.5,0.8c-0.1,0.1-0.3,0.1-0.3,0.3c0,0.1,0.1,0.2,0.3,0.2l0.2,0l0.6,0l0.9,0
				c0,0,0.1,0,0.2-0.1c0.1-0.1,0-0.2,0-0.2c0-0.2-0.2-0.3-0.3-0.3c-0.3-0.1-0.6-0.2-0.6-1.2l0,0c0,0,0.1-2.6,0.1-2.7
				c0.1,0.2,1.6,4.2,1.6,4.2c0.1,0.2,0.1,0.3,0.3,0.3c0.2,0,0.2-0.2,0.3-0.3l1.6-3.9c0,0,0.1-0.2,0.1-0.3c0,0.1,0,0.2,0,0.2l0.1,3
				c0,0.1,0,0.1,0,0.1c0,0.5-0.2,0.6-0.4,0.7c-0.1,0.1-0.2,0.1-0.2,0.3c0,0,0,0.1,0.1,0.2c0.1,0.1,0.4,0.1,0.4,0.1
				c0.1,0,0.3,0,0.3,0l0.7,0l0.7,0c0.3,0,0.5,0,0.5-0.3c0-0.2-0.2-0.2-0.3-0.3c-0.2-0.1-0.5-0.2-0.5-0.9l-0.1-4.4
				c0-0.7,0.2-0.7,0.5-0.8c0.1-0.1,0.3-0.1,0.3-0.3c0-0.2-0.2-0.2-0.3-0.2l-0.3,0l-0.2,0l-0.2,0l-0.3,0c-0.2,0-0.3,0.2-0.3,0.2
				l-2,4.8c0,0,0,0.1,0,0.1c0,0,0-0.1,0-0.1l-1.9-4.8C25.5,82.8,25.4,82.8,25.2,82.8z"/>
		</g>
	</g>
	<g>
		<g>
			<g>
				<path class="st0" d="M139.1,82.8l-0.3,0l-0.3,0l-0.6,0c0,0-0.2,0.1-0.2,0.1l-0.1,0.2c0,0.2,0.2,0.2,0.3,0.3
					c0.2,0.1,0.3,0.1,0.3,0.3c0,0.2-0.1,0.3-0.3,0.7l-0.7,1l-0.1,0.1c0,0-0.1,0.1-0.1,0.1c0,0-0.1-0.1-0.1-0.1l-0.8-1.5l-0.1-0.3
					c0-0.1,0.1-0.2,0.2-0.2c0.1-0.1,0.3-0.2,0.3-0.3v0c0,0,0-0.1-0.1-0.1c-0.1-0.1-0.2-0.1-0.2-0.1l-0.3,0l-0.8,0l-0.9,0l-0.3,0
					c-0.1,0-0.3,0-0.3,0.2c0,0.2,0.1,0.2,0.2,0.3c0.2,0.1,0.6,0.3,1.1,1.2l0.9,1.6c0,0.1,0.2,0.5,0.2,0.5l-0.1,0.2l-0.1,0.1l-1.4,2
					c-0.2,0.3-0.4,0.4-0.6,0.5c-0.1,0.1-0.3,0.2-0.3,0.3v0.1c0,0,0,0.1,0.1,0.1c0.1,0.1,0.3,0.1,0.3,0.1c0.1,0,0.5,0,0.5,0l0.4,0
					l0.3,0l0.6,0c0.2,0,0.3-0.1,0.3-0.2c0-0.2-0.2-0.3-0.4-0.3c-0.2-0.1-0.4-0.1-0.4-0.3c0-0.1,0.1-0.3,0.3-0.6l0.8-1.2
					c0,0,0-0.1,0.1-0.1c0,0.1,0.1,0.1,0.1,0.1l0.9,1.4l0.2,0.5c0,0.1-0.1,0.2-0.2,0.2c-0.1,0.1-0.3,0.1-0.3,0.3c0,0,0,0.1,0.1,0.2
					c0.1,0.1,0.2,0.1,0.2,0.1c0,0,0.7,0,0.7,0l0.3,0l0.6,0l0.2,0c0.3,0,0.5,0,0.5-0.2c0-0.1-0.1-0.2-0.2-0.3
					c-0.2-0.1-0.4-0.3-0.8-0.8l-1.3-2.2l-0.1-0.1l-0.1-0.3l0.2-0.3l0.1-0.1l1-1.5c0.4-0.6,0.7-0.7,0.9-0.8c0.1-0.1,0.2-0.1,0.2-0.2
					c0-0.2-0.1-0.3-0.3-0.3L139.1,82.8z"/>
			</g>
			<g>
				<path class="st0" d="M144,82.8l-0.3,0l-0.3,0l-0.6,0c0,0-0.1,0-0.2,0.1c-0.1,0.1-0.1,0.2-0.1,0.2c0,0.2,0.2,0.2,0.3,0.3
					c0.2,0.1,0.3,0.1,0.3,0.3c0,0.2,0,0.3-0.3,0.7l-0.7,1l-0.1,0.1c0,0-0.1,0.1-0.1,0.1c0,0-0.1-0.1-0.1-0.1l-0.8-1.5l-0.1-0.3
					c0-0.1,0.1-0.2,0.2-0.2c0.1-0.1,0.3-0.2,0.3-0.3v-0.1c0,0,0-0.1-0.1-0.1c-0.1-0.1-0.2-0.1-0.2-0.1l-0.3,0l-0.8,0l-0.9,0l-0.3,0
					c-0.1,0-0.3,0-0.3,0.2c0,0.2,0.1,0.2,0.2,0.3c0.2,0.1,0.6,0.3,1.1,1.2l0.9,1.6c0,0.1,0.2,0.5,0.2,0.5l-0.1,0.2
					c0,0-0.1,0.1-0.1,0.1l-1.4,2c-0.2,0.3-0.4,0.4-0.6,0.5c-0.1,0.1-0.3,0.2-0.3,0.3v0.1c0,0,0,0,0.1,0.1s0.3,0.1,0.3,0.1
					c0.1,0,0.5,0,0.5,0l0.4,0l0.3,0l0.6,0c0.2,0,0.3-0.1,0.3-0.2c0-0.2-0.2-0.3-0.4-0.3c-0.3-0.1-0.4-0.1-0.4-0.3l0,0
					c0-0.1,0.1-0.3,0.3-0.6l0.8-1.2c0,0,0-0.1,0.1-0.1c0,0.1,0.1,0.1,0.1,0.1l0.9,1.4l0.2,0.5c0,0.1-0.1,0.2-0.2,0.2
					c-0.1,0.1-0.3,0.1-0.3,0.3c0,0,0,0.1,0.1,0.2s0.2,0.1,0.2,0.1c0,0,0.7,0,0.7,0l0.4,0l0.6,0l0.2,0c0.3,0,0.6,0,0.6-0.2
					c0-0.1-0.1-0.2-0.2-0.3c-0.2-0.1-0.5-0.3-0.8-0.8l-1.3-2.2l-0.1-0.1l-0.2-0.3l0.2-0.3l0.1-0.1l1-1.5c0.4-0.6,0.7-0.7,0.9-0.8
					c0.1-0.1,0.3-0.1,0.3-0.2c0-0.2-0.1-0.3-0.3-0.3L144,82.8z"/>
			</g>
			<g>
				<path class="st0" d="M148.9,82.8l-0.1,0.2c0,0.2,0.2,0.3,0.4,0.3c0.3,0.1,0.6,0.2,0.6,0.7v4.8c0,0.5-0.2,0.6-0.4,0.7
					c-0.1,0.1-0.2,0.1-0.2,0.3c0,0.1,0.1,0.2,0.2,0.2l0.9,0l0.9,0l0.4,0c0.1,0,0.4,0,0.4-0.2c0-0.2-0.2-0.2-0.3-0.2
					c-0.3-0.1-0.6-0.1-0.6-0.8v-4.7c0-0.5,0.2-0.6,0.4-0.6c0.1,0,0.3-0.1,0.3-0.3c0-0.1,0-0.2-0.1-0.2l-0.3,0l-0.7,0l-0.4,0l-1,0
					C149.2,82.8,148.9,82.8,148.9,82.8z"/>
			</g>
			<g>
				<path class="st0" d="M151.1,82.8C151,82.9,151,83,151,83c0,0.2,0.2,0.3,0.4,0.3c0.3,0.1,0.6,0.2,0.6,0.7v4.8
					c0,0.5-0.2,0.6-0.4,0.7c-0.1,0.1-0.2,0.1-0.2,0.3c0,0.1,0.1,0.2,0.2,0.2l0.9,0l0.9,0l0.4,0c0.1,0,0.4,0,0.4-0.2
					c0-0.2-0.2-0.2-0.3-0.2c-0.3-0.1-0.6-0.1-0.6-0.8v-4.7c0-0.5,0.2-0.6,0.4-0.6c0.1,0,0.3-0.1,0.3-0.3c0-0.1,0-0.2-0.1-0.2
					s-0.3,0-0.3,0l-0.7,0l-0.4,0l-1,0C151.4,82.8,151.1,82.8,151.1,82.8z"/>
			</g>
		</g>
		<path class="st0" d="M148.9,82.8l-0.3,0l-0.7,0c0,0-0.2,0-0.3,0.1c-0.1,0.1-0.1,0.2-0.1,0.2c0,0.2,0.2,0.2,0.4,0.3
			c0.2,0.1,0.5,0.1,0.5,0.6c0,0.1,0,0.4-0.3,1.1c0,0-1.2,3-1.2,3.1c0,0,0,0,0,0l-1.1-3.2c-0.2-0.6-0.3-1.1-0.3-1.3
			c0-0.2,0.1-0.2,0.2-0.2c0.1,0,0.3-0.1,0.3-0.3c0,0,0-0.1-0.1-0.2c-0.1-0.1-0.3-0.1-0.3-0.1c-0.1,0-0.2,0-0.2,0l-0.7,0l-0.9,0
			c-0.1,0-0.4,0-0.4,0.1c0,0-0.1,0.2-0.1,0.2c0,0.1,0.2,0.2,0.2,0.2c0.3,0.1,0.4,0.2,0.6,0.5l2.1,5.8c0.2,0.4,0.3,0.6,0.4,0.6
			c0.2,0,0.2-0.1,0.3-0.4l0,0l2.3-5.9c0.1-0.3,0.3-0.4,0.4-0.5c0.1-0.1,0.2-0.1,0.2-0.3c0,0,0-0.1-0.1-0.2c-0.1-0.1-0.3-0.1-0.3-0.1
			C149.3,82.8,148.9,82.8,148.9,82.8z"/>
	</g>
	<g>
		<path class="st0" d="M14.3,53.2c-0.2,0.1-0.2,0.3-0.2,0.3L14,54.8l-0.4,2.8c0,0,0,0.1,0.1,0.2C13.9,58,14,58,14,58
			c0.4,0,0.6-0.3,0.7-0.7c0.2-0.6,0.5-1.4,1.9-1.3l7.8,0.8c3.8,0.4,5.6,2.5,5.2,6.2c-0.4,3.6-2.7,5.5-6.1,5.1l-8.7-0.9
			c-1-0.1-1.1-0.7-1.1-1.2c0-0.3-0.1-0.6-0.4-0.7c0,0-0.1,0-0.2,0.1c-0.2,0.1-0.2,0.4-0.2,0.7c0,0.1-0.2,2.4-0.2,2.4l-0.3,1.9
			c0,0.1,0,0.6,0.3,0.7c0.4,0,0.6-0.4,0.7-0.8c0.2-0.5,0.4-1.1,1.1-1l8.2,0.9c3.2,0.3,7.5,0,8.2-7c0.2-2.2-0.2-4-1.2-5.3
			c-1.6-2-4.2-2.2-5.1-2.3l-7.6-0.8c-1.4-0.2-1.6-0.7-1.7-1.2c-0.1-0.2-0.2-0.5-0.5-0.5C14.5,53.1,14.4,53.1,14.3,53.2z"/>
	</g>
	<g>
		<path class="st0" d="M21.9,32.3l-0.4,1l-0.5,1.3l-1,2c-0.1,0.2,0,0.4,0.2,0.5c0.3,0.1,0.5-0.2,0.8-0.5c0.5-0.7,1.2-1.6,3.1-0.7
			l9.2,4.2c0,0,0.1,0.1,0.1,0.1c-0.1,0-0.3,0.1-0.3,0.1l-16.6,5.3l-0.2,0c-0.2,0-0.6,0.1-0.7,0.4l-0.4,1.1l-0.6,1c0,0-0.1,0.2,0,0.4
			c0,0.1,0.1,0.2,0.1,0.2c0.3,0.1,0.5-0.1,0.8-0.4c0.5-0.7,1.4-1.8,4.6-0.4l8.2,3.7c2,0.9,1.9,1.8,1.8,2.5c0,0.3-0.1,0.7,0.2,0.8
			c0.1,0,0.3,0.2,0.5-0.2l0.2-0.4l0.7-1.7l0.7-1.5l0.4-0.7l0-0.3l-0.2-0.2c-0.3-0.1-0.5,0.2-0.7,0.5c-0.4,0.5-0.8,1.2-2,0.7l-9-4.1
			c-0.4-0.2-0.4-0.2-0.4-0.2c0,0,0.1-0.1,0.5-0.2l15.1-4.8c0.7-0.2,0.9-0.4,1.1-0.6c0,0,0-0.1,0-0.2c-0.1-0.2-0.3-0.3-0.9-0.6
			l-12.8-5.8c-1-0.4-1-1-0.9-1.4c0-0.3,0-0.6-0.3-0.7C22.1,32,22,32.1,21.9,32.3z"/>
	</g>
	<g>
		<path class="st0" d="M29.1,23.2L27.6,25l-1.9,1.9c-0.2,0.2-0.2,0.3,0,0.5c0.2,0.2,0.5,0,0.8-0.2c0.5-0.3,1.1-0.8,1.9,0l9.1,8.3
			c0.6,0.5,0.8,1,0.8,1.3c0,0.3-0.2,0.6-0.3,0.9c-0.1,0.2-0.2,0.3-0.2,0.5c0,0.1,0,0.2,0.1,0.3c0.2,0.2,0.5,0.2,0.8-0.1l0.3-0.3
			l1.2-1.5l1.2-1.2l0.7-0.7c0.2-0.3,0.4-0.5,0.1-0.7c-0.3-0.2-0.6,0-1,0.2c-0.5,0.4-1.2,0.8-1.8,0.2l-9.6-8.7
			c-0.8-0.7-0.5-1.3-0.2-1.8c0.1-0.3,0.3-0.5,0.1-0.8C29.5,22.8,29.3,23,29.1,23.2z"/>
	</g>
	<g>
		<path class="st0" d="M49.4,13.3L49,13.5l-1.3,0.6l-1.5,0.5c-0.2,0.1-0.4,0.2-0.3,0.6c0.1,0.3,0.5,0.2,0.8,0.2
			c0.5-0.1,0.9-0.2,1.1,0.4c0.2,0.3,0.3,0.9,0.3,1.6l-0.3,10.8l0,0.2c0,0.2,0,0.5-0.1,0.5c-0.1,0.1-0.5-0.3-1-0.9l-0.5-0.5l-8-7.1
			c-0.2-0.2-0.4-0.5-0.5-0.8c0-0.1-0.1-0.2-0.1-0.3c0-0.3,0.2-0.5,0.3-0.7c0.1-0.1,0.2-0.3,0.2-0.4c0,0,0-0.1,0-0.1
			c0,0,0-0.1-0.2-0.1c-0.2-0.1-0.4,0-0.4,0l-0.6,0.3l-1.1,0.5l-2.1,0.8c-0.2,0.1-0.3,0.3-0.2,0.6c0.1,0.3,0.4,0.2,0.7,0.2
			c0.4,0,1-0.1,1.7,0.5L47,31.2l0.3,0.3c0.4,0.5,0.9,1,1.3,0.8c0.3-0.1,0.3-0.6,0.3-1.2v-0.5l0.6-15.1c0-1.1,0.3-1.3,0.5-1.5
			c0.1-0.1,0.3-0.2,0.2-0.5c0,0,0-0.2-0.2-0.2C49.7,13.2,49.4,13.3,49.4,13.3z M38.1,18.1L38.1,18.1L38.1,18.1z"/>
	</g>
	<g>
		<path class="st0" d="M63.2,12.6l-1.4,0.1l-1.3,0l-6.1,0.1c-0.5,0-0.8,0.1-0.9,0.2c-0.1,0.1-0.1,0.2-0.1,0.2c0,0.3,0.5,0.4,0.7,0.4
			l0.1,0c1.2,0.1,1.3,1.3,1.3,2.3l0.3,10.6c0,1.2,0,1.8-0.6,2L54.7,29c-0.3,0.1-0.5,0.2-0.5,0.4c0,0,0,0.2,0.1,0.2
			c0.1,0.1,0.4,0.1,0.4,0.1l1.8-0.1l1.2-0.1l3.5,0l2.6,0h0.2c1,0,1.5,0,2.3-0.9c0.8-0.9,1.2-1.7,1.2-2.5c0,0,0-0.2-0.1-0.3
			c-0.1-0.1-0.1-0.1-0.2-0.1c-0.1,0-0.4,0.2-0.4,0.2c-0.6,0.5-2.2,1.9-6.8,2c-0.9,0-1.3-0.1-1.6-0.3c-0.2-0.2-0.2-0.6-0.2-1.2l0-0.4
			L58,22.1V22c0-0.2,0-0.4,0.1-0.5c0,0,0.1-0.1,0.3-0.1c0.2,0,4.1-0.1,4.1-0.1c1.2,0,1.4,0.7,1.5,1.3c0.1,0.4,0.2,0.8,0.5,0.8
			c0.2,0,0.4-0.2,0.4-0.4l-0.1-1.9l0-2.5l-0.2-0.5l-0.2-0.1c-0.3,0-0.3,0.3-0.4,0.6c-0.2,0.6-0.4,1.4-2,1.4l-3.1,0.1
			c-0.5,0-0.7,0-0.8-0.1c-0.1-0.1-0.1-0.2-0.1-0.5l-0.1-4.3c0-0.6,0-1,0.1-1.1c0.2-0.2,0.7-0.2,1.7-0.2l0.4,0l0.4,0
			c1.1,0,3.5-0.1,4.1,0.6c0.2,0.2,0.2,0.6,0.2,0.9c0,0.4,0.1,0.9,0.5,0.9l0.2-0.1c0.3-0.3,0.4-1.2,0.3-2.9c0-0.3-0.1-0.4-0.2-0.6
			l-0.2-0.1L63.2,12.6z"/>
	</g>
	<g>
		<path class="st0" d="M85.9,28.6c-0.6-0.1-1.6-0.3-2.8-2c0,0-4-5.7-4.1-5.9c1.8-0.8,3-2.4,3-4.1c0,0,0,0,0,0c0-1.2-0.4-2.2-1.2-2.9
			c-0.7-0.7-2.1-1.4-4.7-1.3l-2,0.1l-2.2,0.1l-1.2-0.1l-0.4,0c-0.3,0-0.6,0.2-0.6,0.4c0,0.4,0.4,0.4,0.8,0.5
			c0.6,0.1,1.4,0.2,1.4,1.6l0.2,12.1c0,1.1-0.6,1.4-1.2,1.6c-0.3,0.1-0.6,0.2-0.6,0.5c0,0.2,0.2,0.4,0.3,0.4l2.8-0.1l2.6,0l0.2,0
			c0.1,0,0.4,0,0.4-0.1s0.1-0.2,0.1-0.2c0-0.4-0.4-0.5-0.9-0.6c-0.7-0.2-1.5-0.3-1.5-1.5l-0.1-5V22c0,0,0-0.3,0.1-0.3
			s0.2-0.1,0.5-0.1l0.4,0c1.8,0,1.8,0,2.2,0.6l0.3,0.5l2.8,4.1c1.2,1.7,2.6,2.6,4.1,2.6c1.6,0,1.7-0.3,1.7-0.4v0
			C86.4,28.7,86.2,28.7,85.9,28.6z M76.7,20.4l-0.6,0c-0.8,0-1.6,0-1.8-0.1l-0.1-5.6l0,0l0,0l0,0c0-0.3,0-0.5,0.2-0.6
			c0.2-0.1,0.4-0.2,0.9-0.2h0.1c1.7,0,2.9,0.3,3.6,1c0.6,0.6,0.9,1.4,0.9,2.4c0,1-0.2,1.8-0.8,2.3C78.5,20.1,77.7,20.3,76.7,20.4z"
			/>
		<path class="st0" d="M74.2,14.6L74.2,14.6L74.2,14.6z"/>
	</g>
	<g>
		<path class="st0" d="M89.9,13.4c-1,0.8-1.7,2-1.7,3.5c0,3.4,2.9,4.1,5.3,5c2.1,0.8,3.9,1.8,3.9,3.4c0,2.3-2,3.3-4.1,3.3
			c-3.2,0-4.6-2.3-4.9-3.3l-0.1-0.2c-0.1-0.4-0.1-0.6-0.5-0.6c-0.1,0-0.2,0-0.3,0.1c-0.1,0.1-0.1,0.2-0.1,0.4c0,0.1,0,0.2,0,0.3
			l0.6,3.1c0.1,0.5,2.5,1.4,4.1,1.4c4.9,0,6.7-2.8,6.7-5.2c0-3.8-2.8-4.4-5.3-5.3c-2.1-0.8-4-1.8-4-3.1c0-2.1,2.1-2.7,3.5-2.7
			c2.1,0,3.8,1.3,4.4,2.8c0.1,0.2,0.2,0.8,0.6,0.8c0,0,0.2,0,0.3-0.1c0.1-0.1,0.1-0.4,0.1-0.4l-0.3-3.2c0-0.4-0.3-0.5-0.4-0.4
			c-0.1,0.1-0.3,0.2-0.3,0.2l-0.2,0.1L97.1,13c-0.5-0.2-1.4-0.7-3.6-0.7C92.1,12.2,90.8,12.6,89.9,13.4z M87.7,25.2L87.7,25.2
			L87.7,25.2z"/>
	</g>
	<g>
		<path class="st0" d="M103.2,12.9c-0.1,0.1-0.1,0.3-0.1,0.3c0,0,0,0,0,0c0,0.2,0.3,0.3,0.6,0.4c0.6,0.2,1.3,0.4,1.3,1.3
			c0,0,0,0.1,0,0.1l-0.7,12c-0.1,1.4-0.8,1.6-1.4,1.7c-0.3,0.1-0.6,0.1-0.6,0.4c0,0,0,0,0,0c0,0.3,0.2,0.4,0.6,0.4h0.4l1.9,0
			l1.7,0.2l0.9,0.1c0,0,0.3,0,0.5-0.1c0.1,0,0.1-0.2,0.1-0.2c0-0.4-0.4-0.5-0.8-0.6c-0.6-0.2-1.3-0.4-1.3-1.3l0.8-12.6
			c0.1-1.1,0.7-1.2,1.2-1.3c0.3-0.1,0.6-0.1,0.6-0.4c0-0.3-0.2-0.4-0.5-0.4l-2.3,0l-2.7-0.3C103.5,12.8,103.3,12.8,103.2,12.9z"/>
	</g>
	<g>
		<path class="st0" d="M112.4,14l0,0.1l-0.9,2.1c0,0-0.1,0.2,0,0.3c0.1,0.1,0.2,0.1,0.2,0.1c0.3,0.1,0.5-0.2,0.6-0.4l0.1-0.1
			l0.1-0.1c0.7-1,0.8-1.2,2.2-0.9l3.8,1c0.1,0,0.1,0.2-0.1,0.9l0,0.1l0,0L115,29c-0.2,0.8-0.9,0.8-1.5,0.9c-0.4,0-0.8,0-0.8,0.3
			c0,0-0.1,0.2,0,0.3c0.1,0.1,0.3,0.2,0.3,0.2l0.1,0l3.1,0.8l1.9,0.6c0,0,0.1,0.1,0.2,0c0.1,0,0.2-0.2,0.2-0.2
			c0.1-0.4-0.2-0.5-0.5-0.7c-0.5-0.3-1.2-0.6-0.8-1.7l3.3-11.5l0.1-0.3c0.1-0.4,0.2-0.6,0.2-0.6c0.1,0,0.3,0,0.6,0.1l3.6,1
			c1.4,0.4,1.3,1,1.2,1.5c-0.1,0.3-0.1,0.7,0.3,0.8c0.2,0,0.3,0,0.3,0c0.2-0.1,0.2-0.3,0.2-0.5l0.4-1.8c0.2-0.6,0-0.8-0.6-1
			l-0.7-0.2l-6.2-1.6l-4.2-1.2l-2.5-0.7C112.7,13.2,112.5,13.7,112.4,14z"/>
	</g>
	<g>
		<path class="st0" d="M129.9,19.2c-0.1,0.2,0,0.4,0.2,0.6c0.2,0.3,0.6,0.8,0.4,1.4l-0.7,7.6l0,0.1c0,0.3-0.1,0.8-0.3,1.1l-3.8,4.4
			c-0.6,0.7-1.2,0.4-1.7,0.2c-0.3-0.2-0.6-0.3-0.8-0.1c0,0-0.1,0.1-0.1,0.3c0,0.2,0.2,0.3,0.2,0.3l0.3,0.2l1.4,1.1l1.4,1.2l0.6,0.5
			c0.2,0.2,0.5,0.4,0.7,0.2c0.2-0.3,0-0.5-0.2-0.9c-0.3-0.5-0.7-1.1,0.1-2l3.8-4.4c0.1-0.2,0.3-0.2,0.6-0.3l0.5-0.1l5.9-1.8l0.4-0.1
			c0.6-0.2,1.1-0.4,1.7-0.2l0.1,0c0.2,0.1,0.5,0.2,0.7,0c0,0,0.1-0.2,0.1-0.3c0-0.1-0.1-0.2-0.1-0.2l-1.7-1.3l-1.3-1.2
			c-0.1-0.1-0.5-0.4-0.8,0c-0.2,0.2,0,0.5,0.3,0.8c0.4,0.5,0.7,0.9,0.3,1.3c-0.4,0.4-0.8,0.5-1.1,0.6l-0.1,0l-4.5,1.4
			c-0.4,0.1-0.5,0.1-0.6,0.1c-0.1-0.1-0.1-0.2-0.1-0.5l0.4-5.5c0-0.3,0.1-0.7,0.3-1c0.2-0.2,0.6-0.2,0.9-0.1c0.3,0.1,0.6,0.1,0.7,0
			c0,0,0.1,0,0.1-0.2c0-0.2-0.3-0.4-0.3-0.4l-0.3-0.2l-1-0.8l-1.5-1.3l-0.6-0.5C130.3,18.9,130,19,129.9,19.2z"/>
	</g>
	<g>
		<path class="st0" d="M151,47.2c-0.2-2.6-1.4-4.9-3.2-6.5c-1.7-1.5-4-2.2-6.3-2c-5.3,0.4-8.6,4.2-8.2,9.5c0.2,2.8,1.3,5.2,3.2,6.8
			c1.8,1.5,4,2.2,6.6,1.9C148,56.5,151.4,52.3,151,47.2z M141.9,54.8c-2.1,0.2-4-0.4-5.4-1.5c-1.2-1-1.9-2.5-2.1-4.1
			c-0.4-4.9,3.7-7.9,7.8-8.2c2-0.2,3.9,0.4,5.3,1.5c1.2,1,1.9,2.4,2,4.1C149.9,51.3,145.9,54.5,141.9,54.8z"/>
	</g>
	<g>
		<path class="st0" d="M150.6,59c-0.2,1.2-1.2,1.2-2.3,1.2h-10.9c-1.7,0-1.9-0.7-2.1-1.3c-0.1-0.3-0.2-0.5-0.5-0.5
			c-0.1,0-0.3,0.1-0.3,0.3l0,0.7l0.1,1.9l-0.1,2.7l0,0.2c0,0.2,0,0.6,0.4,0.6c0.3,0,0.3-0.3,0.4-0.6c0.1-0.7,0.4-1.6,1.8-1.6h4.8
			h0.2c0.2,0,0.4,0,0.4,0c0.1,0.1,0.1,0.2,0.1,0.3s0,3.4,0,3.4c0,1.2-0.7,1.3-1.3,1.5c-0.4,0.1-0.8,0.2-0.8,0.5
			c0,0.2,0.1,0.4,0.4,0.4l1.9-0.1l2.4,0.1c0.3,0,0.6-0.1,0.6-0.4c0-0.3-0.2-0.3-0.5-0.4c-0.5-0.2-1.2-0.4-1.2-2.1v-2.5
			c0-0.4,0-0.7,0.1-0.8c0.1-0.1,0.2-0.1,0.5-0.1h4.3h0.4c0.4,0,0.7,0,0.8,0.1c0.2,0.2,0.2,0.6,0.2,1.5v0.4V65c0,1.1,0,3.2-0.6,3.7
			c-0.2,0.2-0.6,0.2-0.9,0.2c-0.4,0-0.9,0.1-0.9,0.5c0,0.2,0.4,0.5,3,0.5c0.1,0,0.6,0,0.6-0.3l-0.1-2.1l0-1.4l0-0.9l0.1-6
			c0-0.7-0.2-0.9-0.5-0.9C150.9,58.1,150.7,58.5,150.6,59z"/>
	</g>
	<g>
		<path class="st0" d="M31,105.9l-0.4-2.7l-0.2-1.3l-0.1-1.3l0-0.7c0-0.3-0.1-0.5-0.2-0.6c-0.2-0.1-0.3-0.1-0.3-0.1
			c-0.2,0-0.3,0.3-0.4,0.7c-0.1,0.7-0.3,1.6-1.5,1.7l-11.9,1.4c-1.7,0.2-2-0.5-2.1-0.8c0,0-0.1-0.2-0.1-0.2
			c-0.2-0.4-0.3-0.7-0.6-0.6c0,0-0.1,0-0.2,0.1c-0.2,0.2-0.1,0.7-0.1,0.7l0.5,3.4l0.3,3.2c0.2,1.9,0.9,3.4,2.2,4.4
			c1.3,1,2.8,1.2,3.7,1.1c3.2-0.4,3.7-2.9,3.9-3.9c0,0,0.1-0.4,0.1-0.5c0,0.1,0.1,0.2,0.1,0.2c0.5,0.6,1.5,2,3.6,1.7
			C28.4,111.8,31.6,111.1,31,105.9z M18.6,112.1c-0.4,0.1-1.5,0.1-2.4-0.6c-0.8-0.6-1.2-1.6-1.4-2.9c-0.4-3.2,0.1-3.2,1.6-3.4
			c0,0,5.3-0.6,5.4-0.6s0.2,0,0.2,0c0.2,0.1,0.3,0.7,0.4,1.5C22.9,111.6,20,111.9,18.6,112.1z M28.9,108.5c-0.6,0.8-1.5,1.2-2.5,1.3
			c-0.9,0.1-2.5,0.3-2.9-3.7c-0.1-1-0.2-1.6,0-1.7c0.1-0.1,0.2-0.1,0.4-0.1l0.2,0l3.9-0.4l0.3,0c0.6-0.1,1-0.1,1.2,0.1
			c0.2,0.2,0.3,0.5,0.4,1.1C30,106.3,29.7,107.6,28.9,108.5z"/>
	</g>
	<g>
		<path class="st0" d="M62.8,140.4c0,5.2,3.6,8.6,9.2,8.6c2.9,0,4.2-0.7,5.5-1.4c0.6-0.4,1.3-0.7,2.1-1l0.1,0v-4.4
			c0-1,0.5-1.2,0.8-1.4c0.2-0.1,0.4-0.2,0.4-0.5l-0.1-0.2c-0.1-0.1-0.4-0.1-0.6-0.1h-0.1h-4.1c-0.1,0-0.5,0-0.6,0.1
			s-0.1,0.2-0.1,0.2c0,0.3,0.4,0.4,0.8,0.5c0.6,0.1,1.1,0.2,1.1,0.8v3.5c0,1.9-2.4,2.7-4.8,2.7c-4.9,0-7-3.9-7-7.9
			c0-3.3,1.7-7.2,6.4-7.2c4.3,0,6.1,2.5,6.9,3.6c0.3,0.4,0.5,0.7,0.7,0.7c0.4,0,0.4-0.4,0.4-0.5l-0.2-3.1c0,0,0-0.1,0-0.1
			s0-0.3-0.1-0.4c-0.1-0.1-0.3-0.1-0.3-0.1c-0.2,0-0.3,0.1-0.4,0.2c-0.1,0.1-0.2,0.2-0.2,0.2c-0.2,0-0.4-0.1-0.7-0.3
			c-0.9-0.5-2.4-1.3-5.4-1.3C66.9,131.6,62.8,135.4,62.8,140.4z"/>
	</g>
	<g>
		<path class="st0" d="M104.7,131.5l-3,0.4l-2.3,0.2l-0.4,0c-0.2,0-0.4,0.2-0.4,0.5c0,0.4,0.4,0.4,0.7,0.4c0.6,0,1.3-0.1,1.5,1.7
			l1.3,11.4c0.2,1.7-0.6,2-1.1,2.2c-0.3,0.1-0.5,0.2-0.5,0.5c0,0,0.1,0.2,0.1,0.2c0.1,0.1,0.3,0.1,0.4,0.1c0.2,0,1.1-0.2,1.1-0.2
			l1.8-0.3l1.7-0.1l0.9-0.1c0.4-0.1,0.6-0.1,0.7-0.2s0.1-0.2,0.1-0.2c0-0.3-0.4-0.4-0.8-0.4c-0.8,0-1.9-0.1-2.1-2.3l-1.4-12
			c0-0.4,0.2-0.4,0.8-0.6l0.3-0.1c1-0.2,2.3,0.1,3.3,0.8c1,0.7,1.7,1.7,1.8,2.7c0.2,1.4-0.8,3.1-3.2,3.4l-1.2,0.1c0,0-0.2,0-0.2,0
			c-0.1,0-0.3,0.1-0.3,0.2c-0.1,0.1-0.1,0.2-0.1,0.2c0.1,0.6,1.8,0.6,2,0.6c5.4-0.6,5.3-4.5,5.2-5.3
			C111.2,132.5,108.7,131.1,104.7,131.5z"/>
	</g>
	<g>
		<path class="st0" d="M34.9,118.6l-1-1.8l-1-1.9l-0.5-1.1l-0.1-0.3c-0.2-0.3-0.4-0.4-0.6-0.3c-0.3,0.2-0.2,0.5-0.1,0.9
			c0.2,0.6,0.4,1.3-0.8,1.9L20,121.5c-1,0.5-1.5,0-1.9-0.3c-0.3-0.2-0.5-0.4-0.7-0.3c0,0-0.1,0.1-0.2,0.2c0,0.1,0,0.3,0,0.3l1.4,2.4
			l1.1,2.3l0.1,0.2c0,0.1,0.1,0.3,0.3,0.3s0.2,0,0.2,0c0.4-0.2,0.2-0.6,0.1-1c-0.2-0.7-0.4-1.5,0.7-2l4.4-2.3l0.1,0l0.3-0.1
			c0.1,0,0.2,0.2,0.3,0.4l0.2,0.4c0.9,1.6,0.9,1.6,0.4,2.3l-0.3,0.5l-2.4,4.3c-1,1.9-1.1,3.5-0.5,4.8c0.4,0.8,0.8,1.3,1,1.3l0,0
			c0,0,0.1,0,0.1,0c0.1-0.1,0.2-0.1,0.2-0.3s0-0.2-0.1-0.4c-0.1-0.2-0.2-0.6-0.2-1.1c0-0.6,0.1-1.3,0.7-2.3c0,0,3.3-6.2,3.4-6.3
			c1.5,1.3,3.5,1.6,5.1,0.8c1.1-0.6,1.8-1.3,2-2.3C36.2,122.4,36.2,120.8,34.9,118.6z M34.1,122.1c-0.2,0.8-0.8,1.4-1.7,1.8
			c-2.3,1.2-3.6-0.1-4.2-1.4l-0.3-0.5c-0.3-0.6-0.7-1.3-0.7-1.6c0,0,0-0.1,0-0.1l5-2.6c0.3-0.2,0.5-0.2,0.6-0.2
			c0.2,0.1,0.3,0.3,0.5,0.7l0,0.1C34.2,119.9,34.4,121.1,34.1,122.1z"/>
	</g>
	<g>
		<path class="st0" d="M39.1,124.8c0,0.1-0.1,0.1-0.1,0.2c0,0.2,0.2,0.3,0.3,0.6c0.3,0.3,0.6,0.7,0.6,1.1c0,0.2-0.1,0.5-0.3,0.8
			l-7.2,9.8c-0.9,1.2-1.6,0.9-2.1,0.7c-0.3-0.1-0.6-0.2-0.8,0c-0.2,0.3-0.1,0.5,0.2,0.7l0.4,0.2l1.6,1.1l1.3,1.1l0.8,0.6
			c0,0,0.3,0.2,0.5,0.2c0,0,0.1,0,0.2-0.1c0.2-0.3-0.1-0.6-0.3-1c-0.4-0.5-0.9-1.1-0.4-1.8l7.5-10.2c0.6-0.9,1.2-0.6,1.8-0.4
			c0.3,0.1,0.6,0.2,0.7,0c0.2-0.3,0-0.4-0.3-0.6l-1.9-1.3l-2.1-1.7C39.4,124.6,39.3,124.6,39.1,124.8z"/>
	</g>
	<g>
		<path class="st0" d="M134.9,100.3l-0.1,0.6l-0.6,6.5l-0.5,4.3l-0.3,2.6c-0.1,0.5,0.5,0.6,0.8,0.6l0.1,0l2.2,0.5c0,0,0.2,0,0.3-0.1
			c0.1-0.1,0.1-0.2,0.1-0.2c0-0.3-0.2-0.4-0.5-0.5l-0.1,0c0,0-0.1-0.1-0.1-0.1c-1.1-0.5-1.4-0.6-1.2-2l0.4-3.9
			c0-0.1,0.2-0.2,0.9-0.1l0.1,0l12.2,1.3c0.8,0.1,1,0.8,1.1,1.3c0.1,0.4,0.2,0.7,0.4,0.8c0,0,0.2,0,0.3-0.1s0.1-0.3,0.1-0.3v-0.1
			l0.2-3.2l0.3-1.9c0,0,0-0.2-0.1-0.2c-0.1-0.1-0.3-0.1-0.3-0.1c-0.4,0-0.5,0.3-0.6,0.7c-0.2,0.6-0.4,1.2-1.6,1.1l-12-1.3l-0.3,0
			c-0.4,0-0.6-0.1-0.6-0.1c-0.1-0.1,0-0.3,0-0.6l0.4-3.7c0.1-1.5,0.8-1.4,1.3-1.4c0.3,0,0.7,0,0.7-0.4c0,0,0-0.2-0.1-0.3
			c-0.1-0.1-0.3-0.1-0.5-0.1l-1.9-0.1C135.2,99.5,135,99.7,134.9,100.3z M136.6,108.5L136.6,108.5L136.6,108.5z"/>
	</g>
	<g>
		<path class="st0" d="M130.3,130.3c-2.9-4-8.2-4.8-12.4-1.8c-2.1,1.5-3.5,3.6-3.9,6.1c-0.4,2.2,0.2,4.5,1.5,6.4
			c3.1,4.3,8.1,5.2,12.3,2.2c2.3-1.6,3.8-3.8,4.2-6.2C132.4,134.7,131.8,132.4,130.3,130.3z M130.5,137.7c-0.3,1.5-1.1,2.9-2.4,3.8
			c-4,2.8-8.7,0.8-11-2.5c-1-1.4-1.5-2.9-1.5-4.4c0-0.3,0-0.7,0.1-1c0.3-1.5,1.1-2.9,2.5-3.8c3.8-2.7,8.6-0.9,10.9,2.4
			C130.3,134.1,130.8,136,130.5,137.7z"/>
	</g>
	<g>
		<path class="st0" d="M95,131.8l-2.1,0.1l-1.4,0.1l-1.3,0l-6.1,0.1c-0.5,0-0.8,0.1-0.9,0.2l-0.1,0.2c0,0.3,0.4,0.4,0.7,0.4l0.1,0
			c1.2,0.2,1.3,1.3,1.3,2.3l0.3,10.6c0,1.2,0,1.8-0.6,2c0,0-0.6,0.3-0.6,0.3c-0.3,0.1-0.4,0.2-0.5,0.4c0,0.4,0.4,0.4,0.5,0.4
			l1.8-0.1l1.2-0.1l3.5,0l2.6,0h0.2c1,0,1.5,0,2.3-0.9c0.8-0.9,1.2-1.7,1.2-2.4c0,0-0.1-0.2-0.1-0.3s-0.1-0.1-0.2-0.1
			c-0.1,0-0.3,0.2-0.3,0.2c-0.6,0.5-2.2,1.9-6.8,2c-0.9,0-1.3-0.1-1.6-0.3s-0.2-0.6-0.2-1.2v-0.3l-0.1-4.1v-0.1c0-0.2,0-0.4,0.1-0.5
			c0,0,0.2-0.1,0.3-0.1c0.1,0,4.1-0.1,4.1-0.1c1.2,0,1.4,0.7,1.5,1.3c0.1,0.4,0.2,0.8,0.5,0.8c0.2,0,0.4-0.2,0.3-0.4l-0.1-1.9l0-2.5
			c0,0,0-0.3-0.2-0.5c-0.1-0.1-0.2-0.1-0.2-0.1c-0.3,0-0.3,0.3-0.4,0.6c-0.2,0.6-0.4,1.4-2,1.4l-3.1,0.1c-0.4,0-0.7,0-0.8-0.1
			c-0.1-0.1-0.1-0.2-0.1-0.5l-0.1-4.3c0-0.6,0-1,0.1-1.1c0.2-0.2,0.7-0.2,1.7-0.2l0.4,0l0.4,0c1.1,0,3.5-0.1,4.1,0.6
			c0.2,0.2,0.2,0.6,0.2,0.9c0,0.4,0.1,0.9,0.5,0.9l0.2-0.1c0.3-0.3,0.4-1.2,0.3-2.9C95.3,132.3,95.3,131.8,95,131.8z"/>
	</g>
	<g>
		<path class="st0" d="M60,135c-1.2-2.1-3.5-3.8-6-4.5l-3-0.8l-2.2-0.6l-2.2-0.6c-0.2-0.1-0.5,0-0.5,0.2c-0.1,0.3,0.2,0.4,0.5,0.6
			c0.5,0.3,1.3,0.7,0.9,2.2l-3.2,11.5c-0.4,1.4-1.2,1.4-1.7,1.4c-0.3,0-0.5,0-0.6,0.3c0,0,0,0.2,0,0.2c0.1,0.1,0.2,0.2,0.2,0.2
			l2.8,0.6l2,0.6l1.7,0.5c6.4,1.7,10.5-0.5,12.2-6.5C61.2,138.6,61,136.7,60,135z M57.9,141.2c-1.7,5.7-5.9,5.4-8.2,4.7
			c-1.3-0.4-2.9-1.1-3.5-2c-0.1-0.2,0.2-1,0.3-1.4l0.1-0.2l2.9-10.3c0.3-1,0.3-1.2,2.7-0.6c2.4,0.6,4.2,2,5.2,3.8
			C58.4,136.9,58.5,139,57.9,141.2z"/>
	</g>
	<g>
		<path class="st0" d="M149.1,120.7L149.1,120.7c-0.3-0.2-0.5-0.1-0.7,0.2c-0.4,0.4-1.1,1.2-3.2,1.2c0,0-7,0.2-7.2,0.2
			c0.1-0.3,0.1-0.7,0.1-1c0-1.6-0.7-3-1.9-3.8c-1-0.7-2.1-0.9-3.1-0.7c-0.9,0.2-2.3,0.9-3.7,3.2l-1.1,1.7l-1.2,1.9l-0.7,1l-0.2,0.3
			c-0.2,0.3-0.2,0.6,0,0.7c0.3,0.2,0.6-0.1,0.8-0.3c0.4-0.5,1-1,2.1-0.3l10.2,6.6c0.9,0.6,0.8,1.3,0.7,1.9c-0.1,0.4-0.1,0.6,0.1,0.8
			c0.1,0.1,0.2,0.1,0.3,0.1s0.1,0,0.2-0.2c0.1-0.1,1.5-2.4,1.5-2.4l1.5-2.1l0.2-0.2c0-0.1,0.2-0.3,0.2-0.4c0-0.1-0.1-0.2-0.1-0.2
			c-0.3-0.2-0.6,0.1-1,0.4c-0.5,0.5-1.1,1.1-2.1,0.4l-4.2-2.8l-0.1-0.1l-0.2-0.2c0-0.1,0-0.3,0.2-0.5l0.2-0.3c1-1.6,1-1.6,1.8-1.5
			l0.6,0l5,0c2.2-0.1,3.6-0.7,4.4-2C148.8,121.7,149.2,121,149.1,120.7L149.1,120.7z M136.1,123.7l-0.1,0.1l-0.3,0.5
			c-0.4,0.7-0.9,1.4-1.1,1.4l-4.5-2.9c-0.3-0.2-0.4-0.3-0.4-0.5c0,0,0-0.1,0-0.1c0-0.3,0.2-0.6,0.4-1c0.8-1.3,1.8-2,2.9-2.3
			c0.9-0.2,1.8,0,2.6,0.6c0.8,0.5,1.2,1.1,1.4,1.7C137,122.3,136.4,123.1,136.1,123.7z"/>
	</g>
	<path class="st0" d="M118.6,59.5c-0.5-0.5-1-0.8-1.6-1.1c0.9-0.7,1.4-1.7,1.5-2.8c0.1-1.6-0.8-3.3-2.2-4.2c-0.6-0.4-1.3-0.6-2-0.7
		c0.6-1.4,0.3-3-0.5-4.1c-0.7-0.9-1.7-1.6-2.9-1.8c0-1-0.5-2.1-1.4-3c-1.1-1.2-2.5-1.8-4.1-1.8c-1.6,0-2.9,0.7-4.1,1.8
		c-0.9,0.9-1.4,2-1.4,3c-1.2,0.1-2.2,0.9-2.9,1.8c-0.8,1.2-1.1,2.8-0.5,4.1c-0.7,0-1.4,0.2-2,0.7c-1.4,0.9-2.3,2.6-2.2,4.2
		c0.1,1.1,0.6,2,1.5,2.8c-0.6,0.2-1.1,0.6-1.6,1.1c-1.2,1.3-1.7,3.2-1.2,4.8c0.5,1.6,1.8,2.6,3.8,3l0.9,0.1l0.3,0l8.1,0
		c0,0.2,0,1.2,0,2.1c0.1,2.1-0.8,4.4-3,5c-0.3,0.1-3,0.6-3.6,0.7c-1.4,0.5-1.3,0.9-0.9,0.9c0.2,0,17.6,0,17.8,0
		c0.4,0,0.5-0.4-0.9-0.9c-0.6-0.2-3.3-0.7-3.6-0.7c-2.2-0.5-3.1-2.8-3-5c0-0.8,0-1.8,0-2.1l8.1,0l0.3,0l0.9-0.1
		c1.9-0.3,3.3-1.4,3.8-3C120.3,62.7,119.9,60.8,118.6,59.5z M103.9,65.9l-8.1,0l-0.4,0c0,0-0.6,0-0.6,0c-1.4-0.3-2.3-1-2.7-2
		C92.1,63.6,92,63.3,92,63c0-0.9,0.4-1.8,1-2.5c0.5-0.5,1.6-1.3,3.2-0.8v0c2.1,0.7,6.3,2.2,7.8,2.8L103.9,65.9z M104,60.9
		c-2.3-0.8-7.8-2.8-8.6-3c-1.1-0.5-1.8-1.3-1.8-2.3c0,0,0-0.1,0-0.2c0-1,0.7-2.2,1.6-2.8c0.5-0.3,1.4-0.7,2.6-0.2c0,0,0,0,0.1,0
		l6.3,3.9L104,60.9z M104.1,54.7c-1.6-1-4.9-3-5.5-3.4l0,0c-0.1,0-0.1-0.1-0.2-0.1c-0.7-0.5-1-1.2-1-1.9c0-0.6,0.2-1.3,0.6-1.8
		c0.7-1,2.2-1.8,3.8-0.7c0.5,0.4,1.8,2,2.3,2.5l0,0L104.1,54.7z M104.3,47.2c-0.5-0.6-1.2-1.3-1.6-1.6c-0.5-0.3-1-0.6-1.5-0.7
		c0-1,0.6-1.8,1-2.2c0.7-0.7,1.5-1.1,2.1-1.3L104.3,47.2z M106.3,41.5c0.6,0.2,1.5,0.6,2.1,1.3c0.4,0.4,1,1.2,1,2.2
		c-0.5,0.1-1,0.3-1.5,0.7c-0.4,0.3-1,1-1.6,1.6L106.3,41.5z M106.4,49.3L106.4,49.3c0.5-0.6,1.9-2.1,2.4-2.5c1.6-1.1,3-0.3,3.8,0.7
		c0.4,0.5,0.6,1.2,0.6,1.8c0,0.7-0.3,1.4-1,1.9c-0.1,0-0.1,0.1-0.2,0.1l0,0c-0.6,0.4-3.9,2.4-5.5,3.4L106.4,49.3z M106.6,56.3
		l6.3-3.9c0,0,0,0,0.1,0c1.1-0.5,2.1-0.1,2.6,0.2c1,0.6,1.6,1.7,1.6,2.8c0,0,0,0.1,0,0.2c-0.1,1-0.7,1.8-1.8,2.3
		c-0.8,0.3-6.3,2.2-8.6,3L106.6,56.3z M118.5,63.9c-0.3,1.1-1.3,1.8-2.7,2l-0.6,0l-0.4,0l-8.1,0l-0.1-3.5c1.5-0.5,5.6-2,7.8-2.8v0
		c1.6-0.5,2.7,0.3,3.2,0.8c0.7,0.7,1,1.6,1,2.5C118.7,63.3,118.6,63.6,118.5,63.9z"/>
	<path class="st0" d="M104.8,33.1c-2.3,0-22.3,0-22.3,0s-19.8,0-22.1,0c-8.5,0-26.1,5.8-26.1,26.1c0,1.4,0,21.2,0,21.2
		s0,20.1,0,21.5c0,20.3,17.6,26.1,26.1,26.1c2.3,0,22.1,0,22.1,0s20,0,22.3,0c8.5,0,26.1-5.8,26.1-26.1c0-1.4,0-21.5,0-21.5
		c0-1.1,0-19.8,0-21.2C130.9,38.9,113.3,33.1,104.8,33.1z M80.4,114.9c-0.3,0.2-1.3,0.8-2.6,0.8c-2.2,0-3.8-2-3.8-2l-0.4-0.5
		l-0.5,0.5c0,0-2.1,2-4,2c-2.3,0-3.9-1.9-3.9-1.9l-0.5-0.6l-0.5,0.5c0,0-1.8,1.9-4.2,1.9c-2.2,0-3.8-1.9-3.8-2l-0.5-0.6l-0.5,0.7
		c-0.1,0.1-1.5,1.9-3.9,1.8c-2.5-0.1-4-1.7-4-1.8l-0.4-0.5l-0.5,0.4c0,0-1.4,1.2-2.8,1.6c-1.2-1.6-2.2-3.3-2.9-5.3
		c0.6,0.1,1.4,0.2,2.2,0.1c1.6-0.1,3.1-1.1,3.9-1.7c0.7,0.6,2.3,1.7,4.5,1.8c2.2,0,3.7-1.1,4.5-1.8c0.8,0.7,2.3,1.9,4.3,1.9
		c2.2,0,3.9-1.2,4.7-1.9c0.8,0.6,2.8,1.9,4.6,1.8c1.7,0,3.5-1.2,4.3-1.8c0.8,0.6,2.5,1.8,4.6,1.9c1,0,1.8-0.2,2.4-0.4
		C80.4,111.7,80.4,113.5,80.4,114.9z M39.2,58.7c0-13.8,11-21,20.7-21c12.8,0,9.5,0,13.2,0c3.7,0,7.2,2.8,7.2,5.6s0,26.5,0,28.7
		c0,3.6-3.7,6.3-6,6.3c-1.2,0-27.4,0-29.3,0c-2.7,0-5.8-3.1-5.8-6C39.2,70.6,39.2,70.3,39.2,58.7z M39.2,88.8c0-2.9,3.2-6,5.8-6
		c2,0,28.1,0,29.3,0c2.2,0,6,2.7,6,6.3c0,1.4,0,11.3,0,19.2c-0.2,0.2-1,0.7-2.3,0.6c-2.2-0.1-4.1-1.9-4.2-1.9l-0.4-0.4l-0.4,0.4
		c0,0-2.1,1.8-3.9,1.9c-1.8,0.1-4.1-1.9-4.1-1.9l-0.5-0.4l-0.4,0.4c0,0-1.8,1.9-4.2,1.9c-2.2,0-3.8-1.9-3.8-2l-0.5-0.6l-0.5,0.6
		c-0.1,0.1-1.5,1.9-3.9,1.8c-2.5,0-4-1.7-4-1.8l-0.4-0.5l-0.5,0.4c0,0-1.9,1.7-3.6,1.8c-1,0.1-2-0.1-2.6-0.2
		c-0.5-1.9-0.8-3.9-0.8-6.1C39.2,90.7,39.2,90.4,39.2,88.8z M73.2,123.4c-3.7,0-0.4,0-13.2,0c-5.6,0-11.6-2.4-15.7-7.1
		c1-0.4,1.9-1,2.4-1.3c0.7,0.6,2.3,1.7,4.5,1.8c2.2,0.1,3.7-1.1,4.5-1.8c0.8,0.7,2.3,1.9,4.3,1.9c2.1,0,3.8-1.2,4.6-1.8
		c0.7,0.7,2.3,1.9,4.4,1.9c1.8,0,3.6-1.2,4.4-1.9c0.7,0.7,2.3,1.9,4.3,2c1.1,0,2-0.3,2.7-0.6c0,0.7,0,1.2,0,1.4
		C80.4,120.6,76.9,123.4,73.2,123.4z M126.1,102.4c0,13.8-11,21-20.7,21c-12.8,0-9.5,0-13.2,0c-3.7,0-7.2-2.8-7.2-5.6
		c0-2.7,0-26.5,0-28.7c0-3.6,3.7-6.3,6-6.3c1.2,0,27.4,0,29.3,0c2.7,0,5.8,3.1,5.8,6C126.1,90.4,126.1,90.7,126.1,102.4z
		 M126.1,72.2c0,2.9-3.2,6-5.8,6c-2,0-28.1,0-29.3,0c-2.2,0-6-2.7-6-6.3c0-2.3,0-26,0-28.7c0-2.7,3.4-5.6,7.2-5.6
		c3.7,0,0.4,0,13.2,0c9.7,0,20.7,7.2,20.7,21C126.1,70.4,126.1,70.6,126.1,72.2z"/>
	<g>
		<path class="st0" d="M58.7,41.2c0,0,0.2,0.4,0.2,1.1c0,1-0.3,2.6-2,4.7c-1.6,2.1-2.5,4-2.5,5.8c0,0.2,0,0.5,0,0.8
			c0.2,2,1.4,3.7,3.6,5.4c2.2,1.7,3.8,3.6,3.8,4.7c0,0.1,0,0.1,0,0.2c-0.2,0.4-0.5,0.8-0.8,1.1c-0.2-1.3-1.2-3-4-5
			c-3-2-3.9-6.5-3.9-6.6L53,52.3l-0.9,0.8c0,0-4.2,3.7-1,8.7c0.6,1,1.5,1.9,2.5,2.7c1.7,1.5,2.7,2.5,2.1,3.8c-0.4,0.9-0.9,1.2-1,1.2
			h-7.5l0.7,1.1c0.1,0.2,3.4,4.9,11.5,5.3c8.2,0.3,12.5-5,12.7-5.2l0.9-1.1h-9.1c0,0-0.1-0.1-0.1-0.2c0-0.2,0.4-0.7,0.8-1.1
			c0.9-0.9,2.1-2.3,2.1-4.3c0-2.3-0.2-3.8-3.2-6.9c0,0-0.3-0.3-0.3-0.3c-1.6-1.5-3.4-3.1-3.4-4.4c0-1.8,1-3.4,1.8-4.8
			c0.7-1.2,1.3-2.2,1.3-3.2c0-2.9-2.2-3.9-3.4-4l-1.2-0.1L58.7,41.2z M60.8,67.6c0.1-0.1,1.8-1.5,2.3-3l0-0.1l0-0.1
			c0-0.2,0.1-0.3,0.1-0.5c0-2.1-2.6-4.7-4.3-6c-1.8-1.4-2.8-2.9-3-4.5c0-0.2,0-0.4,0-0.6c0-1.5,0.7-3.2,2.2-5
			c1.9-2.4,2.5-4.2,2.5-5.5c0-0.1,0-0.3,0-0.4c0.6,0.3,1.1,1,1.1,2.3c0,0.6-0.7,1.6-1.3,2.5c-0.9,1.5-2,3.2-2,5.3
			c0,1.9,1.9,3.7,3.8,5.4l0.3,0.3c2.7,2.7,2.8,3.9,2.8,5.9c0,1.5-0.9,2.5-1.7,3.4c-0.6,0.7-1.2,1.3-1.2,2.1c0,0,0,0.1,0,0.1
			c0.1,0.9,0.7,1.5,1.5,1.5c0,0,4,0,6,0c-1.7,1.5-5.2,3.8-10.4,3.6c-5.1-0.2-8-2.3-9.5-3.6c1.8,0,4.7,0,4.7,0c0.8,0,1.7-0.8,2.2-2
			c0.2-0.4,0.4-1.1,0.4-1.5c0-1.6-1.3-2.7-2.6-3.9c-0.8-0.8-2.2-2-2.6-2.9c-0.7-1.2-0.8-1.7-0.8-2.7c0-1.3,0.5-2.3,1-2.9
			c0.5,1.7,1.7,4.5,4.1,6.1c3,2.1,3.3,3.7,3.3,4.6c0,0.3-0.1,0.9-0.1,0.9l-0.4,2L60.8,67.6z"/>
	</g>
	<g>
		<path class="st0" d="M62.5,54.5c1.6,1.7,3.8,3.2,4.8,5c1.1,2,0.5,2.1,1.2,3.3c0.8-0.9,2.6-3.2,2.8-5.6c0.1-2.2-2.2-4.1-3.8-5.5
			l-0.3-0.3c-1.7-1.5-2.8-4.3-3.2-5.7C61.3,49.2,60.2,51.9,62.5,54.5z M62.6,51.6c0-1,0.5-2.1,0.8-2.7c0.5,1,1.4,2.5,2.7,3.6
			l0.3,0.3c1.3,1.2,3.3,3,3.3,4.4c0,1.3-0.4,1.9-0.9,2.6c-0.8-2.6-4.4-5.3-4.8-5.7C63.4,53.4,62.6,52.4,62.6,51.6z"/>
	</g>
	<path class="st0" d="M75.2,88.4c0,0-1.4,0.1-3.3,0c-1.9,0-8.4,0.2-10.8,3.8c0,0.1-0.1,0.2-0.1,0.2c-0.7-0.7-1.3-1.4-2.2-2.1
		c-2.3-2.4-6-3.2-10.2-2.1c-1.9,0.5-3.8,0.6-3.8,0.6l-1.7,0.1l1.2,1.1c0.1,0.1,2,1.7,5.5,1.4c2.8-0.2,3.6,0.7,4.5,1.7
		c0,0,0.1,0.1,0.2,0.2c0,0,0,0.1,0,0.1c0.3,0.4,0.9,1.3,1.7,2.1c-0.8,0-1.5-0.1-1.7-0.2c-0.2-0.1-1-0.4-1.5-0.3l-0.4,0.1l-0.1,0.4
		c-0.4,1.4-0.4,2.8,0.1,3.6l0.3,0.5l0.5-0.2c0.3-0.1,1.7-0.5,3.6,0.3c2.6,1.1,4.8,1.1,6.6-0.1c1.6-1,3.3-0.9,4-0.8l1.2,0.3l-0.3-1.2
		c-0.2-0.6-0.5-0.8-0.8-1c-0.3-0.5-0.9-1.5-2.2-2l-0.1,0l-0.1,0c0,0,0,0,0,0c0.4-0.3,0.8-0.8,1.2-1.4c0.9-1,3.1-1.5,5.2-2
		c3.3-0.6,4.1-2.2,4.2-2.3l0.5-1.1L75.2,88.4z M66.3,97.5c-1,0.1-2.2,0.3-3.4,1.1c-1.5,0.9-3.2,0.9-5.3-0.1
		c-1.7-0.7-3.1-0.7-3.9-0.5c0-0.2,0-0.3,0-0.5c0-0.2,0.1-0.6,0.1-0.9c0.1,0,0.2,0.1,0.2,0.1c0.4,0.2,2.8,0.6,4.1,0l1.2-0.5l-1-0.7
		c-1.1-0.8-2.1-2.2-2.5-2.8l-0.1-0.1l-0.2-0.2c-1-1.1-2.2-2.4-5.7-2.2c-1,0.1-1.8,0-2.5-0.2c0.5-0.1,1.1-0.2,1.6-0.4
		c1.8-0.5,6.2-1.3,8.9,1.7l0,0l0,0c0.8,0.6,1.5,1.3,2.1,2c0.4,0.4,0.7,0.8,1.1,1.1c0.3,0.4,0.7,0.7,0.8,0.8c0.1,0.1,0.4,0.3,0.9,0.4
		c0.6,0.3,1.3,0.6,2.2,0.7C65.7,96.7,66,97.2,66.3,97.5z M71.4,90.4c-2.5,0.6-4.8,1.1-6,2.5c-0.7,1-1.3,1.5-1.9,1.6
		c-0.1,0-0.2,0-0.3,0c-0.4-0.2-0.7-0.5-1-0.8c0-0.1-0.1-0.2-0.1-0.2s0-0.2,0.1-0.4c1.6-2.4,6-3.2,9.6-3.2c0.5,0,0.9,0,1.3,0
		C72.7,90.1,72.2,90.2,71.4,90.4z"/>
	<path class="st0" d="M121.7,93.2c0.1-0.1,0.1-0.2,0.1-0.3v-3.1c0-0.1-0.1-0.2-0.2-0.2h-5.2c-0.1,0-0.2-0.1-0.2-0.2v-1.3
		c0-0.1-0.1-0.2-0.2-0.2h-3.9c-0.1,0-0.2-0.1-0.2-0.2v-1.1c0-0.1-0.1-0.2-0.2-0.2H98.1c-0.1,0-0.2,0.1-0.2,0.2v1.1
		c0,0.1-0.1,0.2-0.2,0.2h-3.9c-0.1,0-0.2,0.1-0.2,0.2v1.3c0,0.1-0.1,0.2-0.2,0.2h-5.2c-0.1,0-0.2,0.1-0.2,0.2v3.1
		c0,0.1,0.1,0.2,0.1,0.3l0.3,0.3c0.1,0.1,0.1,0.2,0.1,0.3S88.6,94,88.6,94l-0.3,0.3c-0.1,0.1-0.1,0.2-0.1,0.3v2.3
		c0,0.1,0.1,0.2,0.1,0.3l0.3,0.3c0.1,0.1,0.1,0.2,0.1,0.3v3.2c0,0.1-0.1,0.2-0.1,0.3l-0.3,0.3c-0.1,0.1-0.1,0.2-0.1,0.3v2.6
		c0,0.1,0.1,0.2,0.1,0.3l0.3,0.3c0.1,0.1,0.1,0.2,0.1,0.3l0,5.4c0,0.1,0,0.2-0.1,0.3l-0.3,0.3c-0.1,0.1-0.1,0.2-0.1,0.3v2.7
		c0,0.1,0.1,0.2,0.2,0.2l8.2,0c0.1,0,0.2-0.1,0.2-0.2v-2.7c0-0.1-0.1-0.2-0.1-0.3l-0.3-0.3c-0.1-0.1-0.1-0.2-0.1-0.3v-5.3
		c0-0.1,0.1-0.2,0.1-0.3l0.3-0.3c0.1-0.1,0.1-0.2,0.1-0.3v-2.6c0-0.1-0.1-0.2-0.1-0.3l-0.1-0.1c-0.1-0.1-0.1-0.2-0.1-0.3
		c0,0,0.1-0.6,0.4-0.9c0.4-0.4,1-0.6,1.9-0.6c1.5,0,2.3,1.4,2.3,1.4c0,0.1,0,0.2,0,0.2l-0.2,0.2c-0.1,0.1-0.1,0.2-0.1,0.3v2.6
		c0,0.1,0,0.2,0.1,0.3l0.3,0.3c0.1,0.1,0.1,0.2,0.1,0.3l0,5.4c0,0.1-0.1,0.2-0.1,0.3l-0.3,0.3c-0.1,0.1-0.1,0.2-0.1,0.3v2.7
		c0,0.1,0.1,0.2,0.2,0.2h8.3c0.1,0,0.2-0.1,0.2-0.2v-2.7c0-0.1,0-0.2-0.1-0.3l-0.3-0.3c-0.1-0.1-0.1-0.2-0.1-0.3l0-5.4
		c0-0.1,0.1-0.2,0.1-0.3l0.3-0.3c0.1-0.1,0.1-0.2,0.1-0.3v-2.6c0-0.1,0-0.2-0.1-0.3l-0.3-0.2c-0.1-0.1-0.1-0.2,0-0.2
		c0,0,0.8-1.4,2.3-1.4c0.9,0,1.5,0.2,1.9,0.6c0.3,0.3,0.5,0.9,0.5,0.9c0,0.1,0,0.2-0.1,0.3l-0.1,0.1c-0.1,0.1-0.1,0.2-0.1,0.3v2.6
		c0,0.1,0.1,0.2,0.1,0.3l0.3,0.3c0.1,0.1,0.1,0.2,0.1,0.3l0,5.3c0,0.1,0,0.2-0.1,0.3l-0.3,0.3c-0.1,0.1-0.1,0.2-0.1,0.3v2.7
		c0,0.1,0.1,0.2,0.2,0.2l8.2,0c0.1,0,0.2-0.1,0.2-0.2v-2.7c0-0.1-0.1-0.2-0.1-0.3l-0.3-0.3c-0.1-0.1-0.1-0.2-0.1-0.3l0-5.4
		c0-0.1,0.1-0.2,0.1-0.3l0.3-0.3c0.1-0.1,0.1-0.2,0.1-0.3v-2.6c0-0.1-0.1-0.2-0.1-0.3l-0.3-0.3c-0.1-0.1-0.1-0.2-0.1-0.3v-3.2
		c0-0.1,0.1-0.2,0.1-0.3l0.3-0.3c0.1-0.1,0.1-0.2,0.1-0.3v-2.3c0-0.1-0.1-0.2-0.1-0.3l-0.3-0.3c-0.1-0.1-0.1-0.2-0.1-0.3
		s0.1-0.2,0.1-0.3L121.7,93.2z M95.2,89.4C95.2,89.4,95.3,89.3,95.2,89.4l3.8-0.1c0,0,0.1,0,0.1-0.1v-1.1c0,0,0-0.1,0.1-0.1h11.6
		c0,0,0.1,0,0.1,0.1v1.1c0,0,0,0.1,0.1,0.1h3.7c0,0,0.1,0,0.1,0.1V90c0,0.1,0,0.1-0.1,0.1H95.3c0,0-0.1,0-0.1-0.1V89.4z M89.8,91.3
		C89.8,91.2,89.8,91.2,89.8,91.3l30.3,0c0,0,0,0,0,0v0.5c0,0,0,0.1,0,0.1H89.9c0,0,0,0,0-0.1V91.3z M119.6,93v1.3c0,0,0,0,0,0H90.4
		c0,0,0,0,0,0V93c0,0,0,0,0,0L119.6,93C119.6,93,119.6,93,119.6,93z M89.8,95.3C89.8,95.3,89.8,95.3,89.8,95.3l30.3,0c0,0,0,0,0,0
		v0.6c0,0,0,0,0,0H89.9c0,0,0,0,0,0V95.3z M95.1,112.9C95.1,112.9,95.1,112.9,95.1,112.9l-5.3,0c0,0,0,0,0,0v-0.6c0,0,0,0,0,0h5.2
		c0,0,0,0,0,0V112.9z M90.4,111.1v-6.8c0,0,0,0,0,0h4.1c0,0,0,0,0,0v6.8c0,0,0,0,0,0L90.4,111.1C90.4,111.2,90.4,111.1,90.4,111.1z
		 M95.1,103.2C95.1,103.2,95.1,103.2,95.1,103.2l-5.3,0c0,0,0,0,0,0v-0.6c0,0,0,0,0,0h5.2c0,0,0,0,0,0V103.2z M107.7,112.9
		C107.7,112.9,107.7,112.9,107.7,112.9l-5.3,0c0,0,0,0,0,0v-0.6c0,0,0,0,0,0h5.3c0,0,0,0,0,0V112.9z M102.8,111.1v-6.8c0,0,0,0,0,0
		h4.2c0,0,0,0,0,0v6.8c0,0,0,0,0,0L102.8,111.1C102.9,111.2,102.8,111.1,102.8,111.1z M107.7,103.2
		C107.7,103.2,107.7,103.2,107.7,103.2l-5.3,0c0,0,0,0,0,0v-0.6c0,0,0,0,0,0h5.3c0,0,0,0,0,0V103.2z M111.3,98c-1.2,0-2.2,0.4-3,1.1
		c-1.2,1.2-1.3,2.5-1.3,2.6H103c0-0.1,0-1.4-1.3-2.6c-0.7-0.7-1.7-1.1-3-1.1c-1.3,0-2.3,0.4-3.1,1.1c-1,1.1-1,2.5-0.9,2.6h-4.3
		c0,0,0,0,0,0V97c0,0,0,0,0,0h29.2c0,0,0,0,0,0v4.7c0,0,0,0,0,0h-4.3c0-0.2,0-1.6-0.9-2.6C113.7,98.4,112.6,98,111.3,98z
		 M120.2,112.9C120.2,112.9,120.2,112.9,120.2,112.9l-5.3,0c0,0,0,0,0,0v-0.6c0,0,0,0,0,0h5.2c0,0,0,0,0,0V112.9z M115.4,111.1v-6.8
		c0,0,0,0,0,0h4.1c0,0,0,0,0,0v6.8c0,0,0,0,0,0L115.4,111.1C115.4,111.2,115.4,111.1,115.4,111.1z M120.2,103.2
		C120.2,103.2,120.2,103.2,120.2,103.2l-5.3,0c0,0,0,0,0,0v-0.6c0,0,0,0,0,0h5.2c0,0,0,0,0,0V103.2z"/>
</g>
</svg>
